FuturaBT-Heavy.ufo
<glyph name="exclam" format="2">
  <advance width="688"/>
  <unicode hex="0021"/>
  <outline>
    <contour>
      <point x="201" y="457" type="line"/>
      <point x="201" y="1497" type="line"/>
      <point x="485" y="1497" type="line"/>
      <point x="485" y="457" type="line"/>
    </contour>
    <contour>
      <point x="172" y="133" type="qcurve" smooth="yes"/>
      <point x="172" y="204"/>
      <point x="272" y="303"/>
      <point x="344" y="303" type="qcurve" smooth="yes"/>
      <point x="415" y="303"/>
      <point x="514" y="205"/>
      <point x="514" y="133" type="qcurve" smooth="yes"/>
      <point x="514" y="61"/>
      <point x="415" y="-39"/>
      <point x="344" y="-39" type="qcurve" smooth="yes"/>
      <point x="273" y="-39"/>
      <point x="172" y="63"/>
    </contour>
  </outline>
</glyph>
<glyph name="quotedbl" format="2">
  <advance width="678"/>
  <unicode hex="0022"/>
  <outline>
    <contour>
      <point x="406" y="1438" type="line"/>
      <point x="598" y="1438" type="line"/>
      <point x="598" y="879" type="line"/>
      <point x="406" y="879" type="line"/>
    </contour>
    <contour>
      <point x="80" y="1438" type="line"/>
      <point x="272" y="1438" type="line"/>
      <point x="272" y="879" type="line"/>
      <point x="80" y="879" type="line"/>
    </contour>
  </outline>
</glyph>
<glyph name="quotesingle" format="2">
  <advance width="352"/>
  <unicode hex="0027"/>
  <outline>
    <contour>
      <point x="80" y="1438" type="line"/>
      <point x="272" y="1438" type="line"/>
      <point x="272" y="879" type="line"/>
      <point x="80" y="879" type="line"/>
    </contour>
  </outline>
</glyph>
<glyph name="parenleft" format="2">
  <advance width="688"/>
  <unicode hex="0028"/>
  <outline>
    <contour>
      <point x="627" y="1466" type="line"/>
      <point x="519" y="1250"/>
      <point x="416" y="789"/>
      <point x="416" y="528" type="qcurve" smooth="yes"/>
      <point x="416" y="241"/>
      <point x="518" y="-214"/>
      <point x="627" y="-416" type="qcurve"/>
      <point x="401" y="-469" type="line"/>
      <point x="284" y="-250"/>
      <point x="164" y="246"/>
      <point x="164" y="514" type="qcurve" smooth="yes"/>
      <point x="164" y="808"/>
      <point x="281" y="1299"/>
      <point x="401" y="1516" type="qcurve"/>
    </contour>
  </outline>
</glyph>
<glyph name="parenright" format="2">
  <advance width="688"/>
  <unicode hex="0029"/>
  <outline>
    <contour>
      <point x="61" y="1466" type="qcurve"/>
      <point x="287" y="1516" type="line"/>
      <point x="406" y="1304"/>
      <point x="524" y="803"/>
      <point x="524" y="514" type="qcurve" smooth="yes"/>
      <point x="524" y="246"/>
      <point x="404" y="-250"/>
      <point x="287" y="-469" type="qcurve"/>
      <point x="61" y="-416" type="line"/>
      <point x="170" y="-214"/>
      <point x="272" y="241"/>
      <point x="272" y="528" type="qcurve" smooth="yes"/>
      <point x="272" y="791"/>
      <point x="169" y="1249"/>
    </contour>
  </outline>
</glyph>
<glyph name="asterisk" format="2">
  <advance width="973"/>
  <unicode hex="002A"/>
  <outline>
    <contour>
      <point x="215" y="834" type="line"/>
      <point x="129" y="971" type="line"/>
      <point x="362" y="1092" type="line"/>
      <point x="133" y="1212" type="line"/>
      <point x="215" y="1350" type="line"/>
      <point x="424" y="1200" type="line"/>
      <point x="410" y="1464" type="line"/>
      <point x="571" y="1464" type="line"/>
      <point x="557" y="1204" type="line"/>
      <point x="762" y="1350" type="line"/>
      <point x="842" y="1212" type="line"/>
      <point x="618" y="1090" type="line"/>
      <point x="838" y="975" type="line"/>
      <point x="762" y="836" type="line"/>
      <point x="555" y="983" type="line"/>
      <point x="571" y="733" type="line"/>
      <point x="412" y="733" type="line"/>
      <point x="428" y="979" type="line"/>
    </contour>
  </outline>
</glyph>
<glyph name="hyphen" format="2">
  <advance width="854"/>
  <unicode hex="002D"/>
  <outline>
    <contour>
      <point x="147" y="362" type="line"/>
      <point x="147" y="614" type="line"/>
      <point x="707" y="614" type="line"/>
      <point x="707" y="362" type="line"/>
    </contour>
  </outline>
</glyph>
<glyph name="zero" format="2">
  <advance width="1255"/>
  <unicode hex="0030"/>
  <outline>
    <contour>
      <point x="1169" y="721" type="qcurve" smooth="yes"/>
      <point x="1169" y="363"/>
      <point x="883" y="-39"/>
      <point x="629" y="-39" type="qcurve" smooth="yes"/>
      <point x="373" y="-39"/>
      <point x="88" y="360"/>
      <point x="88" y="721" type="qcurve" smooth="yes"/>
      <point x="88" y="1077"/>
      <point x="375" y="1479"/>
      <point x="629" y="1479" type="qcurve" smooth="yes"/>
      <point x="886" y="1479"/>
      <point x="1169" y="1082"/>
    </contour>
    <contour>
      <point x="391" y="719" type="qcurve" smooth="yes"/>
      <point x="391" y="483"/>
      <point x="513" y="231"/>
      <point x="627" y="231" type="qcurve" smooth="yes"/>
      <point x="744" y="231"/>
      <point x="864" y="481"/>
      <point x="864" y="723" type="qcurve" smooth="yes"/>
      <point x="864" y="962"/>
      <point x="744" y="1210"/>
      <point x="629" y="1210" type="qcurve" smooth="yes"/>
      <point x="513" y="1210"/>
      <point x="391" y="958"/>
    </contour>
  </outline>
</glyph>
<glyph name="one" format="2">
  <advance width="1255"/>
  <unicode hex="0031"/>
  <outline>
    <contour>
      <point x="512" y="0" type="line"/>
      <point x="512" y="1204" type="line"/>
      <point x="219" y="1204" type="line"/>
      <point x="342" y="1450" type="line"/>
      <point x="807" y="1450" type="line"/>
      <point x="807" y="0" type="line"/>
    </contour>
  </outline>
</glyph>
<glyph name="five" format="2">
  <advance width="1255"/>
  <unicode hex="0035"/>
  <outline>
    <contour>
      <point x="156" y="317" type="line"/>
      <point x="259" y="248"/>
      <point x="407" y="199"/>
      <point x="494" y="199" type="qcurve" smooth="yes"/>
      <point x="639" y="199"/>
      <point x="805" y="342"/>
      <point x="805" y="465" type="qcurve" smooth="yes"/>
      <point x="805" y="593"/>
      <point x="643" y="731"/>
      <point x="492" y="731" type="qcurve" smooth="yes"/>
      <point x="412" y="731"/>
      <point x="276" y="688"/>
      <point x="219" y="645" type="qcurve"/>
      <point x="150" y="688" type="line"/>
      <point x="332" y="1450" type="line"/>
      <point x="1087" y="1450" type="line"/>
      <point x="1087" y="1204" type="line"/>
      <point x="522" y="1204" type="line"/>
      <point x="451" y="907" type="line"/>
      <point x="502" y="923"/>
      <point x="595" y="938"/>
      <point x="643" y="938" type="qcurve" smooth="yes"/>
      <point x="850" y="938"/>
      <point x="1112" y="678"/>
      <point x="1112" y="473" type="qcurve" smooth="yes"/>
      <point x="1112" y="237"/>
      <point x="792" y="-39"/>
      <point x="514" y="-39" type="qcurve" smooth="yes"/>
      <point x="391" y="-39"/>
      <point x="184" y="19"/>
      <point x="92" y="80" type="qcurve"/>
    </contour>
  </outline>
</glyph>
<glyph name="six" format="2">
  <advance width="1255"/>
  <unicode hex="0036"/>
  <outline>
    <contour>
      <point x="403" y="451" type="qcurve" smooth="yes"/>
      <point x="403" y="344"/>
      <point x="525" y="219"/>
      <point x="629" y="219" type="qcurve" smooth="yes"/>
      <point x="728" y="219"/>
      <point x="850" y="347"/>
      <point x="850" y="451" type="qcurve" smooth="yes"/>
      <point x="850" y="561"/>
      <point x="728" y="686"/>
      <point x="621" y="686" type="qcurve" smooth="yes"/>
      <point x="525" y="686"/>
      <point x="403" y="554"/>
    </contour>
    <contour>
      <point x="526" y="874" type="line"/>
      <point x="567" y="896"/>
      <point x="653" y="915"/>
      <point x="715" y="915" type="qcurve" smooth="yes"/>
      <point x="902" y="915"/>
      <point x="1141" y="661"/>
      <point x="1141" y="463" type="qcurve" smooth="yes"/>
      <point x="1141" y="237"/>
      <point x="850" y="-39"/>
      <point x="612" y="-39" type="qcurve" smooth="yes"/>
      <point x="388" y="-39"/>
      <point x="119" y="237"/>
      <point x="119" y="465" type="qcurve" smooth="yes"/>
      <point x="119" y="596"/>
      <point x="238" y="906"/>
      <point x="362" y="1096" type="qcurve" smooth="yes"/>
      <point x="594" y="1450" type="line"/>
      <point x="944" y="1450" type="line"/>
    </contour>
  </outline>
</glyph>
<glyph name="eight" format="2">
  <advance width="1255"/>
  <unicode hex="0038"/>
  <outline>
    <contour>
      <point x="872" y="774" type="qcurve"/>
      <point x="997" y="736"/>
      <point x="1141" y="532"/>
      <point x="1141" y="393" type="qcurve" smooth="yes"/>
      <point x="1141" y="191"/>
      <point x="867" y="-39"/>
      <point x="623" y="-39" type="qcurve" smooth="yes"/>
      <point x="382" y="-39"/>
      <point x="102" y="191"/>
      <point x="102" y="387" type="qcurve" smooth="yes"/>
      <point x="102" y="530"/>
      <point x="246" y="736"/>
      <point x="373" y="774" type="qcurve"/>
      <point x="261" y="821"/>
      <point x="156" y="974"/>
      <point x="156" y="1090" type="qcurve" smooth="yes"/>
      <point x="156" y="1263"/>
      <point x="412" y="1479"/>
      <point x="623" y="1479" type="qcurve" smooth="yes"/>
      <point x="837" y="1479"/>
      <point x="1090" y="1262"/>
      <point x="1090" y="1079" type="qcurve" smooth="yes"/>
      <point x="1090" y="971"/>
      <point x="978" y="814"/>
    </contour>
    <contour>
      <point x="625" y="1241" type="qcurve" smooth="yes"/>
      <point x="541" y="1241"/>
      <point x="440" y="1149"/>
      <point x="440" y="1073" type="qcurve" smooth="yes"/>
      <point x="440" y="994"/>
      <point x="537" y="903"/>
      <point x="621" y="903" type="qcurve" smooth="yes"/>
      <point x="707" y="903"/>
      <point x="805" y="992"/>
      <point x="805" y="1071" type="qcurve" smooth="yes"/>
      <point x="805" y="1150"/>
      <point x="708" y="1241"/>
    </contour>
    <contour>
      <point x="623" y="207" type="qcurve" smooth="yes"/>
      <point x="727" y="207"/>
      <point x="846" y="322"/>
      <point x="846" y="422" type="qcurve" smooth="yes"/>
      <point x="846" y="524"/>
      <point x="728" y="639"/>
      <point x="623" y="639" type="qcurve" smooth="yes"/>
      <point x="519" y="639"/>
      <point x="397" y="521"/>
      <point x="397" y="422" type="qcurve" smooth="yes"/>
      <point x="397" y="323"/>
      <point x="518" y="207"/>
    </contour>
  </outline>
</glyph>
<glyph name="colon" format="2">
  <advance width="688"/>
  <unicode hex="003A"/>
  <outline>
    <contour>
      <point x="172" y="797" type="qcurve" smooth="yes"/>
      <point x="172" y="868"/>
      <point x="272" y="967"/>
      <point x="344" y="967" type="qcurve" smooth="yes"/>
      <point x="415" y="967"/>
      <point x="514" y="868"/>
      <point x="514" y="797" type="qcurve" smooth="yes"/>
      <point x="514" y="725"/>
      <point x="415" y="625"/>
      <point x="344" y="625" type="qcurve" smooth="yes"/>
      <point x="273" y="625"/>
      <point x="172" y="726"/>
    </contour>
    <contour>
      <point x="172" y="143" type="qcurve" smooth="yes"/>
      <point x="172" y="215"/>
      <point x="272" y="313"/>
      <point x="344" y="313" type="qcurve" smooth="yes"/>
      <point x="415" y="313"/>
      <point x="514" y="215"/>
      <point x="514" y="143" type="qcurve" smooth="yes"/>
      <point x="514" y="72"/>
      <point x="415" y="-29"/>
      <point x="344" y="-29" type="qcurve" smooth="yes"/>
      <point x="273" y="-29"/>
      <point x="172" y="73"/>
    </contour>
  </outline>
</glyph>
<glyph name="at" format="2">
  <advance width="2048"/>
  <unicode hex="0040"/>
  <outline>
    <contour>
      <point x="1167" y="272" type="qcurve"/>
      <point x="1112" y="188"/>
      <point x="968" y="109"/>
      <point x="870" y="109" type="qcurve" smooth="yes"/>
      <point x="712" y="109"/>
      <point x="547" y="281"/>
      <point x="547" y="449" type="qcurve" smooth="yes"/>
      <point x="547" y="688"/>
      <point x="826" y="1012"/>
      <point x="1030" y="1012" type="qcurve" smooth="yes"/>
      <point x="1110" y="1012"/>
      <point x="1228" y="946"/>
      <point x="1266" y="881" type="qcurve"/>
      <point x="1319" y="979" type="line"/>
      <point x="1497" y="979" type="line"/>
      <point x="1350" y="381" type="line" smooth="yes"/>
      <point x="1347" y="370"/>
      <point x="1343" y="347"/>
      <point x="1343" y="340" type="qcurve" smooth="yes"/>
      <point x="1343" y="305"/>
      <point x="1391" y="270"/>
      <point x="1438" y="270" type="qcurve" smooth="yes"/>
      <point x="1477" y="270"/>
      <point x="1562" y="310"/>
      <point x="1599" y="346" type="qcurve" smooth="yes"/>
      <point x="1685" y="426"/>
      <point x="1774" y="640"/>
      <point x="1774" y="768" type="qcurve" smooth="yes"/>
      <point x="1774" y="1008"/>
      <point x="1403" y="1317"/>
      <point x="1110" y="1317" type="qcurve" smooth="yes"/>
      <point x="969" y="1317"/>
      <point x="726" y="1249"/>
      <point x="627" y="1182" type="qcurve" smooth="yes"/>
      <point x="457" y="1068"/>
      <point x="274" y="726"/>
      <point x="274" y="522" type="qcurve" smooth="yes"/>
      <point x="274" y="215"/>
      <point x="688" y="-152"/>
      <point x="1034" y="-152" type="qcurve" smooth="yes"/>
      <point x="1196" y="-152"/>
      <point x="1505" y="-54"/>
      <point x="1638" y="39" type="qcurve"/>
      <point x="1720" y="-78" type="line"/>
      <point x="1567" y="-193"/>
      <point x="1224" y="-309"/>
      <point x="1038" y="-309" type="qcurve" smooth="yes"/>
      <point x="846" y="-309"/>
      <point x="524" y="-212"/>
      <point x="399" y="-117" type="qcurve" smooth="yes"/>
      <point x="244" y="4"/>
      <point x="90" y="320"/>
      <point x="90" y="520" type="qcurve" smooth="yes"/>
      <point x="90" y="687"/>
      <point x="195" y="990"/>
      <point x="297" y="1114" type="qcurve" smooth="yes"/>
      <point x="445" y="1295"/>
      <point x="861" y="1481"/>
      <point x="1116" y="1481" type="qcurve" smooth="yes"/>
      <point x="1285" y="1481"/>
      <point x="1582" y="1390"/>
      <point x="1692" y="1307" type="qcurve" smooth="yes"/>
      <point x="1827" y="1202"/>
      <point x="1960" y="933"/>
      <point x="1960" y="764" type="qcurve" smooth="yes"/>
      <point x="1960" y="599"/>
      <point x="1829" y="320"/>
      <point x="1706" y="221" type="qcurve" smooth="yes"/>
      <point x="1636" y="165"/>
      <point x="1471" y="106"/>
      <point x="1382" y="106" type="qcurve" smooth="yes"/>
      <point x="1276" y="106"/>
      <point x="1169" y="190"/>
    </contour>
    <contour>
      <point x="1217" y="700" type="line"/>
      <point x="1204" y="781"/>
      <point x="1115" y="866"/>
      <point x="1042" y="866" type="qcurve" smooth="yes"/>
      <point x="928" y="866"/>
      <point x="760" y="618"/>
      <point x="760" y="444" type="qcurve" smooth="yes"/>
      <point x="760" y="352"/>
      <point x="841" y="256"/>
      <point x="918" y="256" type="qcurve" smooth="yes"/>
      <point x="1001" y="256"/>
      <point x="1138" y="382"/>
      <point x="1163" y="483" type="qcurve" smooth="yes"/>
    </contour>
  </outline>
</glyph>
<glyph name="A" format="2">
  <advance width="1460"/>
  <unicode hex="0041"/>
  <outline>
    <contour>
      <point x="922" y="557" type="line"/>
      <point x="758" y="1030" type="line" smooth="yes"/>
      <point x="751" y="1051"/>
      <point x="729" y="1153"/>
      <point x="717" y="1227" type="qcurve"/>
      <point x="704" y="1156"/>
      <point x="680" y="1043"/>
      <point x="674" y="1024" type="qcurve" smooth="yes"/>
      <point x="516" y="557" type="line"/>
    </contour>
    <contour>
      <point x="-10" y="0" type="line"/>
      <point x="547" y="1464" type="line"/>
      <point x="905" y="1464" type="line"/>
      <point x="1470" y="0" type="line"/>
      <point x="1114" y="0" type="line"/>
      <point x="995" y="311" type="line"/>
      <point x="428" y="311" type="line"/>
      <point x="326" y="0" type="line"/>
    </contour>
  </outline>
</glyph>
<glyph name="B" format="2">
  <advance width="1223"/>
  <unicode hex="0042"/>
  <outline>
    <contour>
      <point x="477" y="244" type="line"/>
      <point x="600" y="244" type="line" smooth="yes"/>
      <point x="718" y="244"/>
      <point x="840" y="347"/>
      <point x="840" y="446" type="qcurve" smooth="yes"/>
      <point x="840" y="539"/>
      <point x="719" y="637"/>
      <point x="604" y="637" type="qcurve" smooth="yes"/>
      <point x="477" y="637" type="line"/>
    </contour>
    <contour>
      <point x="477" y="879" type="line"/>
      <point x="547" y="879" type="line" smooth="yes"/>
      <point x="689" y="879"/>
      <point x="807" y="959"/>
      <point x="807" y="1053" type="qcurve" smooth="yes"/>
      <point x="807" y="1145"/>
      <point x="694" y="1223"/>
      <point x="553" y="1223" type="qcurve" smooth="yes"/>
      <point x="477" y="1223" type="line"/>
    </contour>
    <contour>
      <point x="164" y="0" type="line"/>
      <point x="164" y="1464" type="line"/>
      <point x="438" y="1464" type="line" smooth="yes"/>
      <point x="651" y="1464"/>
      <point x="848" y="1431"/>
      <point x="920" y="1393" type="qcurve" smooth="yes"/>
      <point x="1005" y="1344"/>
      <point x="1098" y="1184"/>
      <point x="1098" y="1083" type="qcurve" smooth="yes"/>
      <point x="1098" y="953"/>
      <point x="944" y="796"/>
      <point x="791" y="770" type="qcurve"/>
      <point x="968" y="744"/>
      <point x="1149" y="566"/>
      <point x="1149" y="418" type="qcurve" smooth="yes"/>
      <point x="1149" y="310"/>
      <point x="1045" y="131"/>
      <point x="954" y="82" type="qcurve" smooth="yes"/>
      <point x="873" y="38"/>
      <point x="655" y="0"/>
      <point x="403" y="0" type="qcurve" smooth="yes"/>
      <point x="371" y="0" type="line"/>
    </contour>
  </outline>
</glyph>
<glyph name="C" format="2">
  <advance width="1470"/>
  <unicode hex="0043"/>
  <outline>
    <contour>
      <point x="1343" y="1083" type="line"/>
      <point x="1248" y="1168"/>
      <point x="1048" y="1247"/>
      <point x="934" y="1247" type="qcurve" smooth="yes"/>
      <point x="700" y="1247"/>
      <point x="422" y="967"/>
      <point x="422" y="731" type="qcurve" smooth="yes"/>
      <point x="422" y="500"/>
      <point x="680" y="229"/>
      <point x="903" y="229" type="qcurve" smooth="yes"/>
      <point x="1030" y="229"/>
      <point x="1248" y="314"/>
      <point x="1341" y="399" type="qcurve"/>
      <point x="1339" y="78" type="line"/>
      <point x="1239" y="19"/>
      <point x="1020" y="-39"/>
      <point x="899" y="-39" type="qcurve" smooth="yes"/>
      <point x="549" y="-39"/>
      <point x="100" y="396"/>
      <point x="100" y="731" type="qcurve" smooth="yes"/>
      <point x="100" y="1065"/>
      <point x="550" y="1499"/>
      <point x="905" y="1499" type="qcurve" smooth="yes"/>
      <point x="1024" y="1499"/>
      <point x="1246" y="1449"/>
      <point x="1354" y="1397" type="qcurve"/>
    </contour>
  </outline>
</glyph>
<glyph name="D" format="2">
  <advance width="1542"/>
  <unicode hex="0044"/>
  <outline>
    <contour>
      <point x="477" y="264" type="line"/>
      <point x="651" y="264" type="line" smooth="yes"/>
      <point x="897" y="264"/>
      <point x="1122" y="488"/>
      <point x="1122" y="731" type="qcurve" smooth="yes"/>
      <point x="1122" y="973"/>
      <point x="897" y="1198"/>
      <point x="651" y="1198" type="qcurve" smooth="yes"/>
      <point x="477" y="1198" type="line"/>
    </contour>
    <contour>
      <point x="164" y="0" type="line"/>
      <point x="164" y="1464" type="line"/>
      <point x="563" y="1464" type="line" smooth="yes"/>
      <point x="799" y="1464"/>
      <point x="1071" y="1398"/>
      <point x="1174" y="1321" type="qcurve" smooth="yes"/>
      <point x="1307" y="1222"/>
      <point x="1444" y="921"/>
      <point x="1444" y="729" type="qcurve" smooth="yes"/>
      <point x="1444" y="534"/>
      <point x="1304" y="233"/>
      <point x="1169" y="135" type="qcurve" smooth="yes"/>
      <point x="1069" y="63"/>
      <point x="824" y="0"/>
      <point x="588" y="0" type="qcurve" smooth="yes"/>
      <point x="477" y="0" type="line"/>
    </contour>
  </outline>
</glyph>
<glyph name="E" format="2">
  <advance width="1169"/>
  <unicode hex="0045"/>
  <outline>
    <contour>
      <point x="164" y="0" type="line"/>
      <point x="164" y="1464" type="line"/>
      <point x="1026" y="1464" type="line"/>
      <point x="1026" y="1200" type="line"/>
      <point x="477" y="1200" type="line"/>
      <point x="477" y="899" type="line"/>
      <point x="1026" y="899" type="line"/>
      <point x="1026" y="633" type="line"/>
      <point x="477" y="633" type="line"/>
      <point x="477" y="266" type="line"/>
      <point x="1026" y="266" type="line"/>
      <point x="1026" y="0" type="line"/>
    </contour>
  </outline>
</glyph>
<glyph name="G" format="2">
  <advance width="1645"/>
  <unicode hex="0047"/>
  <outline>
    <contour>
      <point x="891" y="772" type="line"/>
      <point x="1558" y="772" type="line"/>
      <point x="1560" y="759"/>
      <point x="1561" y="729"/>
      <point x="1561" y="698" type="qcurve" smooth="yes"/>
      <point x="1561" y="369"/>
      <point x="1185" y="-39"/>
      <point x="887" y="-39" type="qcurve" smooth="yes"/>
      <point x="546" y="-39"/>
      <point x="104" y="396"/>
      <point x="104" y="731" type="qcurve" smooth="yes"/>
      <point x="104" y="1063"/>
      <point x="548" y="1497"/>
      <point x="887" y="1497" type="qcurve" smooth="yes"/>
      <point x="1066" y="1497"/>
      <point x="1364" y="1347"/>
      <point x="1481" y="1198" type="qcurve"/>
      <point x="1270" y="1042" type="line"/>
      <point x="1191" y="1140"/>
      <point x="1017" y="1227"/>
      <point x="903" y="1227" type="qcurve" smooth="yes"/>
      <point x="686" y="1227"/>
      <point x="426" y="957"/>
      <point x="426" y="731" type="qcurve" smooth="yes"/>
      <point x="426" y="509"/>
      <point x="687" y="236"/>
      <point x="897" y="236" type="qcurve" smooth="yes"/>
      <point x="1051" y="236"/>
      <point x="1243" y="381"/>
      <point x="1243" y="498" type="qcurve" smooth="yes"/>
      <point x="1243" y="514" type="line"/>
      <point x="891" y="514" type="line"/>
    </contour>
  </outline>
</glyph>
<glyph name="H" format="2">
  <advance width="1587"/>
  <unicode hex="0048"/>
  <outline>
    <contour>
      <point x="164" y="0" type="line"/>
      <point x="164" y="1464" type="line"/>
      <point x="477" y="1464" type="line"/>
      <point x="477" y="877" type="line"/>
      <point x="1112" y="877" type="line"/>
      <point x="1112" y="1464" type="line"/>
      <point x="1425" y="1464" type="line"/>
      <point x="1425" y="0" type="line"/>
      <point x="1112" y="0" type="line"/>
      <point x="1112" y="612" type="line"/>
      <point x="477" y="612" type="line"/>
      <point x="477" y="0" type="line"/>
    </contour>
  </outline>
</glyph>
<glyph name="I" format="2">
  <advance width="653"/>
  <unicode hex="0049"/>
  <outline>
    <contour>
      <point x="170" y="0" type="line"/>
      <point x="170" y="1464" type="line"/>
      <point x="483" y="1464" type="line"/>
      <point x="483" y="0" type="line"/>
    </contour>
  </outline>
</glyph>
<glyph name="J" format="2">
  <advance width="909"/>
  <unicode hex="004A"/>
  <outline>
    <contour>
      <point x="758" y="1464" type="line"/>
      <point x="758" y="500" type="line" smooth="yes"/>
      <point x="758" y="335"/>
      <point x="732" y="181"/>
      <point x="702" y="127" type="qcurve" smooth="yes"/>
      <point x="658" y="45"/>
      <point x="487" y="-39"/>
      <point x="365" y="-39" type="qcurve" smooth="yes"/>
      <point x="211" y="-39"/>
      <point x="26" y="115"/>
      <point x="0" y="264" type="qcurve"/>
      <point x="227" y="372" type="line"/>
      <point x="235" y="303"/>
      <point x="290" y="233"/>
      <point x="338" y="233" type="qcurve" smooth="yes"/>
      <point x="398" y="233"/>
      <point x="444" y="320"/>
      <point x="444" y="471" type="qcurve" smooth="yes"/>
      <point x="444" y="602" type="line"/>
      <point x="444" y="1464" type="line"/>
    </contour>
  </outline>
</glyph>
<glyph name="K" format="2">
  <advance width="1327"/>
  <unicode hex="004B"/>
  <outline>
    <contour>
      <point x="164" y="0" type="line"/>
      <point x="164" y="1464" type="line"/>
      <point x="477" y="1464" type="line"/>
      <point x="477" y="801" type="line"/>
      <point x="965" y="1464" type="line"/>
      <point x="1327" y="1464" type="line"/>
      <point x="803" y="797" type="line"/>
      <point x="1346" y="0" type="line"/>
      <point x="969" y="0" type="line"/>
      <point x="477" y="766" type="line"/>
      <point x="477" y="0" type="line"/>
    </contour>
  </outline>
</glyph>
<glyph name="M" format="2">
  <advance width="1819"/>
  <unicode hex="004D"/>
  <outline>
    <contour>
      <point x="37" y="0" type="line"/>
      <point x="260" y="1464" type="line"/>
      <point x="588" y="1464" type="line"/>
      <point x="870" y="602" type="line" smooth="yes"/>
      <point x="879" y="575"/>
      <point x="900" y="471"/>
      <point x="909" y="404" type="qcurve"/>
      <point x="917" y="472"/>
      <point x="937" y="579"/>
      <point x="946" y="604" type="qcurve" smooth="yes"/>
      <point x="1233" y="1464" type="line"/>
      <point x="1556" y="1464" type="line"/>
      <point x="1780" y="0" type="line"/>
      <point x="1483" y="0" type="line"/>
      <point x="1376" y="883" type="line" smooth="yes"/>
      <point x="1364" y="981"/>
      <point x="1356" y="1081"/>
      <point x="1356" y="1124" type="qcurve" smooth="yes"/>
      <point x="1356" y="1147"/>
      <point x="1357" y="1170"/>
      <point x="1358" y="1179" type="qcurve"/>
      <point x="1343" y="1093"/>
      <point x="1316" y="968"/>
      <point x="1305" y="936" type="qcurve" smooth="yes"/>
      <point x="995" y="0" type="line"/>
      <point x="819" y="0" type="line"/>
      <point x="514" y="936" type="line" smooth="yes"/>
      <point x="510" y="949"/>
      <point x="483" y="1067"/>
      <point x="459" y="1180" type="qcurve"/>
      <point x="459" y="1137" type="line" smooth="yes"/>
      <point x="459" y="1035"/>
      <point x="441" y="887" type="qcurve"/>
      <point x="440" y="883" type="line"/>
      <point x="334" y="0" type="line"/>
    </contour>
  </outline>
</glyph>
<glyph name="N" format="2">
  <advance width="1708"/>
  <unicode hex="004E"/>
  <outline>
    <contour>
      <point x="164" y="0" type="line"/>
      <point x="164" y="1464" type="line"/>
      <point x="489" y="1464" type="line"/>
      <point x="1137" y="612" type="line" smooth="yes"/>
      <point x="1165" y="576"/>
      <point x="1232" y="445"/>
      <point x="1268" y="356" type="qcurve"/>
      <point x="1257" y="421"/>
      <point x="1247" y="549"/>
      <point x="1247" y="645" type="qcurve" smooth="yes"/>
      <point x="1247" y="1464" type="line"/>
      <point x="1546" y="1464" type="line"/>
      <point x="1546" y="0" type="line"/>
      <point x="1239" y="0" type="line"/>
      <point x="573" y="868" type="line" smooth="yes"/>
      <point x="545" y="904"/>
      <point x="479" y="1035"/>
      <point x="442" y="1126" type="qcurve"/>
      <point x="453" y="1063"/>
      <point x="463" y="934"/>
      <point x="463" y="836" type="qcurve" smooth="yes"/>
      <point x="463" y="0" type="line"/>
    </contour>
  </outline>
</glyph>
<glyph name="R" format="2">
  <advance width="1241"/>
  <unicode hex="0052"/>
  <outline>
    <contour>
      <point x="1223" y="0" type="line"/>
      <point x="862" y="0" type="line"/>
      <point x="477" y="684" type="line"/>
      <point x="477" y="0" type="line"/>
      <point x="164" y="0" type="line"/>
      <point x="164" y="1464" type="line"/>
      <point x="612" y="1464" type="line" smooth="yes"/>
      <point x="879" y="1464"/>
      <point x="1145" y="1257"/>
      <point x="1145" y="1049" type="qcurve" smooth="yes"/>
      <point x="1145" y="898"/>
      <point x="963" y="684"/>
      <point x="819" y="666" type="qcurve"/>
    </contour>
    <contour>
      <point x="477" y="840" type="line"/>
      <point x="524" y="840" type="line" smooth="yes"/>
      <point x="714" y="840"/>
      <point x="836" y="923"/>
      <point x="836" y="1026" type="qcurve" smooth="yes"/>
      <point x="836" y="1134"/>
      <point x="705" y="1225"/>
      <point x="524" y="1225" type="qcurve" smooth="yes"/>
      <point x="477" y="1225" type="line"/>
    </contour>
  </outline>
</glyph>
<glyph name="S" format="2">
  <advance width="1147"/>
  <unicode hex="0053"/>
  <outline>
    <contour>
      <point x="70" y="186" type="qcurve"/>
      <point x="244" y="383" type="line"/>
      <point x="277" y="302"/>
      <point x="423" y="209"/>
      <point x="514" y="209" type="qcurve" smooth="yes"/>
      <point x="624" y="209"/>
      <point x="752" y="313"/>
      <point x="752" y="401" type="qcurve" smooth="yes"/>
      <point x="752" y="505"/>
      <point x="539" y="608" type="qcurve" smooth="yes"/>
      <point x="470" y="641"/>
      <point x="430" y="662" type="qcurve" smooth="yes"/>
      <point x="238" y="762"/>
      <point x="90" y="953"/>
      <point x="90" y="1085" type="qcurve" smooth="yes"/>
      <point x="90" y="1266"/>
      <point x="377" y="1499"/>
      <point x="606" y="1499" type="qcurve" smooth="yes"/>
      <point x="739" y="1499"/>
      <point x="932" y="1406"/>
      <point x="1006" y="1307" type="qcurve"/>
      <point x="821" y="1130" type="line"/>
      <point x="788" y="1194"/>
      <point x="679" y="1257"/>
      <point x="602" y="1257" type="qcurve" smooth="yes"/>
      <point x="509" y="1257"/>
      <point x="395" y="1164"/>
      <point x="395" y="1090" type="qcurve" smooth="yes"/>
      <point x="395" y="974"/>
      <point x="621" y="878" type="qcurve" smooth="yes"/>
      <point x="666" y="859"/>
      <point x="690" y="848" type="qcurve" smooth="yes"/>
      <point x="876" y="763"/>
      <point x="1055" y="549"/>
      <point x="1055" y="412" type="qcurve" smooth="yes"/>
      <point x="1055" y="206"/>
      <point x="774" y="-39"/>
      <point x="537" y="-39" type="qcurve" smooth="yes"/>
      <point x="369" y="-39"/>
      <point x="129" y="77"/>
    </contour>
  </outline>
</glyph>
<glyph name="U" format="2">
  <advance width="1583"/>
  <unicode hex="0055"/>
  <outline>
    <contour>
      <point x="1423" y="1464" type="line"/>
      <point x="1423" y="553" type="line" smooth="yes"/>
      <point x="1423" y="255"/>
      <point x="1109" y="-39"/>
      <point x="793" y="-39" type="qcurve" smooth="yes"/>
      <point x="472" y="-39"/>
      <point x="158" y="255"/>
      <point x="158" y="553" type="qcurve" smooth="yes"/>
      <point x="158" y="1464" type="line"/>
      <point x="469" y="1464" type="line"/>
      <point x="469" y="602" type="line" smooth="yes"/>
      <point x="469" y="421"/>
      <point x="629" y="238"/>
      <point x="788" y="238" type="qcurve" smooth="yes"/>
      <point x="948" y="238"/>
      <point x="1112" y="422"/>
      <point x="1112" y="602" type="qcurve" smooth="yes"/>
      <point x="1112" y="1464" type="line"/>
    </contour>
  </outline>
</glyph>
<glyph name="V" format="2">
  <advance width="1370"/>
  <unicode hex="0056"/>
  <outline>
    <contour>
      <point x="535" y="0" type="line"/>
      <point x="-6" y="1464" type="line"/>
      <point x="340" y="1464" type="line"/>
      <point x="625" y="551" type="line" smooth="yes"/>
      <point x="633" y="523"/>
      <point x="667" y="371"/>
      <point x="686" y="274" type="qcurve"/>
      <point x="699" y="368"/>
      <point x="730" y="514"/>
      <point x="745" y="561" type="qcurve" smooth="yes"/>
      <point x="1034" y="1464" type="line"/>
      <point x="1376" y="1464" type="line"/>
      <point x="831" y="0" type="line"/>
    </contour>
  </outline>
</glyph>
<glyph name="W" format="2">
  <advance width="2058"/>
  <unicode hex="0057"/>
  <outline>
    <contour>
      <point x="1182" y="1464" type="line"/>
      <point x="1399" y="670" type="line" smooth="yes"/>
      <point x="1420" y="594"/>
      <point x="1456" y="420"/>
      <point x="1472" y="312" type="qcurve"/>
      <point x="1474" y="403"/>
      <point x="1497" y="580"/>
      <point x="1520" y="670" type="qcurve" smooth="yes"/>
      <point x="1710" y="1464" type="line"/>
      <point x="2019" y="1464" type="line"/>
      <point x="1636" y="0" type="line"/>
      <point x="1335" y="0" type="line"/>
      <point x="1073" y="934" type="line" smooth="yes"/>
      <point x="1054" y="998"/>
      <point x="1032" y="1128"/>
      <point x="1028" y="1198" type="qcurve"/>
      <point x="1023" y="1124"/>
      <point x="1002" y="992"/>
      <point x="985" y="934" type="qcurve" smooth="yes"/>
      <point x="721" y="0" type="line"/>
      <point x="420" y="0" type="line"/>
      <point x="37" y="1464" type="line"/>
      <point x="350" y="1464" type="line"/>
      <point x="543" y="651" type="line" smooth="yes"/>
      <point x="559" y="581"/>
      <point x="579" y="418"/>
      <point x="584" y="322" type="qcurve"/>
      <point x="603" y="449"/>
      <point x="654" y="644" type="qcurve"/>
      <point x="659" y="665" type="line"/>
      <point x="874" y="1464" type="line"/>
    </contour>
  </outline>
</glyph>
<glyph name="X" format="2">
  <advance width="1229"/>
  <unicode hex="0058"/>
  <outline>
    <contour>
      <point x="549" y="1081" type="line" smooth="yes"/>
      <point x="573" y="1040"/>
      <point x="601" y="977"/>
      <point x="612" y="942" type="qcurve"/>
      <point x="625" y="978"/>
      <point x="657" y="1048"/>
      <point x="680" y="1087" type="qcurve" smooth="yes"/>
      <point x="887" y="1464" type="line"/>
      <point x="1219" y="1464" type="line"/>
      <point x="782" y="766" type="line"/>
      <point x="1233" y="0" type="line"/>
      <point x="895" y="0" type="line"/>
      <point x="678" y="406" type="line" smooth="yes"/>
      <point x="658" y="443"/>
      <point x="627" y="523"/>
      <point x="614" y="567" type="qcurve"/>
      <point x="597" y="515"/>
      <point x="563" y="433"/>
      <point x="547" y="403" type="qcurve" smooth="yes"/>
      <point x="330" y="0" type="line"/>
      <point x="-6" y="0" type="line"/>
      <point x="446" y="766" type="line"/>
      <point x="6" y="1464" type="line"/>
      <point x="340" y="1464" type="line"/>
    </contour>
  </outline>
</glyph>
<glyph name="Z" format="2">
  <advance width="1298"/>
  <unicode hex="005A"/>
  <outline>
    <contour>
      <point x="1235" y="0" type="line"/>
      <point x="6" y="0" type="line"/>
      <point x="764" y="1214" type="line"/>
      <point x="84" y="1214" type="line"/>
      <point x="84" y="1464" type="line"/>
      <point x="1266" y="1464" type="line"/>
      <point x="508" y="252" type="line"/>
      <point x="1235" y="252" type="line"/>
    </contour>
  </outline>
</glyph>
<glyph name="bracketright" format="2">
  <advance width="688"/>
  <unicode hex="005D"/>
  <outline>
    <contour>
      <point x="506" y="1497" type="line"/>
      <point x="506" y="-451" type="line"/>
      <point x="55" y="-451" type="line"/>
      <point x="55" y="-217" type="line"/>
      <point x="254" y="-217" type="line"/>
      <point x="254" y="1266" type="line"/>
      <point x="55" y="1266" type="line"/>
      <point x="55" y="1497" type="line"/>
    </contour>
  </outline>
</glyph>
<glyph name="asciicircum" format="2">
  <advance width="2048"/>
  <unicode hex="005E"/>
  <outline>
    <contour>
      <point x="897" y="1460" type="line"/>
      <point x="1149" y="1460" type="line"/>
      <point x="1630" y="899" type="line"/>
      <point x="1395" y="899" type="line"/>
      <point x="1024" y="1270" type="line"/>
      <point x="651" y="899" type="line"/>
      <point x="416" y="899" type="line"/>
    </contour>
  </outline>
</glyph>
<glyph name="grave" format="2">
  <advance width="1024"/>
  <unicode hex="0060"/>
  <outline>
    <contour>
      <point x="219" y="1495" type="line"/>
      <point x="477" y="1495" type="line"/>
      <point x="674" y="1126" type="line"/>
      <point x="532" y="1126" type="line"/>
    </contour>
  </outline>
</glyph>
<glyph name="a" format="2">
  <advance width="1251"/>
  <unicode hex="0061"/>
  <outline>
    <contour>
      <point x="862" y="492" type="qcurve" smooth="yes"/>
      <point x="862" y="624"/>
      <point x="729" y="778"/>
      <point x="616" y="778" type="qcurve" smooth="yes"/>
      <point x="500" y="778"/>
      <point x="367" y="625"/>
      <point x="367" y="492" type="qcurve" smooth="yes"/>
      <point x="367" y="359"/>
      <point x="498" y="211"/>
      <point x="614" y="211" type="qcurve" smooth="yes"/>
      <point x="732" y="211"/>
      <point x="862" y="359"/>
    </contour>
    <contour>
      <point x="1122" y="0" type="line"/>
      <point x="846" y="0" type="line"/>
      <point x="850" y="141" type="line"/>
      <point x="792" y="48"/>
      <point x="629" y="-39"/>
      <point x="512" y="-39" type="qcurve" smooth="yes"/>
      <point x="317" y="-39"/>
      <point x="78" y="251"/>
      <point x="78" y="489" type="qcurve" smooth="yes"/>
      <point x="78" y="737"/>
      <point x="313" y="1014"/>
      <point x="522" y="1014" type="qcurve" smooth="yes"/>
      <point x="631" y="1014"/>
      <point x="796" y="916"/>
      <point x="852" y="819" type="qcurve"/>
      <point x="852" y="981" type="line"/>
      <point x="1122" y="981" type="line"/>
    </contour>
  </outline>
</glyph>
<glyph name="b" format="2">
  <advance width="1262"/>
  <unicode hex="0062"/>
  <outline>
    <contour>
      <point x="399" y="492" type="qcurve" smooth="yes"/>
      <point x="399" y="359"/>
      <point x="530" y="211"/>
      <point x="647" y="211" type="qcurve" smooth="yes"/>
      <point x="764" y="211"/>
      <point x="895" y="359"/>
      <point x="895" y="492" type="qcurve" smooth="yes"/>
      <point x="895" y="625"/>
      <point x="762" y="778"/>
      <point x="645" y="778" type="qcurve" smooth="yes"/>
      <point x="532" y="778"/>
      <point x="399" y="624"/>
    </contour>
    <contour>
      <point x="139" y="0" type="line"/>
      <point x="139" y="1550" type="line"/>
      <point x="412" y="1550" type="line"/>
      <point x="412" y="991" type="line" smooth="yes"/>
      <point x="412" y="945"/>
      <point x="405" y="854"/>
      <point x="399" y="811" type="qcurve"/>
      <point x="469" y="917"/>
      <point x="633" y="1014"/>
      <point x="739" y="1014" type="qcurve" smooth="yes"/>
      <point x="949" y="1014"/>
      <point x="1184" y="737"/>
      <point x="1184" y="489" type="qcurve" smooth="yes"/>
      <point x="1184" y="250"/>
      <point x="946" y="-39"/>
      <point x="752" y="-39" type="qcurve" smooth="yes"/>
      <point x="635" y="-39"/>
      <point x="472" y="48"/>
      <point x="414" y="141" type="qcurve"/>
      <point x="416" y="0" type="line"/>
    </contour>
  </outline>
</glyph>
<glyph name="c" format="2">
  <advance width="938"/>
  <unicode hex="0063"/>
  <outline>
    <contour>
      <point x="862" y="29" type="line"/>
      <point x="804" y="-6"/>
      <point x="676" y="-39"/>
      <point x="600" y="-39" type="qcurve" smooth="yes"/>
      <point x="368" y="-39"/>
      <point x="76" y="256"/>
      <point x="76" y="492" type="qcurve" smooth="yes"/>
      <point x="76" y="723"/>
      <point x="370" y="1014"/>
      <point x="604" y="1014" type="qcurve" smooth="yes"/>
      <point x="682" y="1014"/>
      <point x="806" y="984"/>
      <point x="862" y="952" type="qcurve"/>
      <point x="860" y="666" type="line"/>
      <point x="815" y="712"/>
      <point x="697" y="762"/>
      <point x="631" y="762" type="qcurve" smooth="yes"/>
      <point x="511" y="762"/>
      <point x="367" y="615"/>
      <point x="367" y="494" type="qcurve" smooth="yes"/>
      <point x="367" y="370"/>
      <point x="514" y="223"/>
      <point x="639" y="223" type="qcurve" smooth="yes"/>
      <point x="708" y="223"/>
      <point x="815" y="273"/>
      <point x="860" y="326" type="qcurve"/>
    </contour>
  </outline>
</glyph>
<glyph name="d" format="2">
  <advance width="1262"/>
  <unicode hex="0064"/>
  <outline>
    <contour>
      <point x="862" y="492" type="qcurve" smooth="yes"/>
      <point x="862" y="624"/>
      <point x="729" y="778"/>
      <point x="616" y="778" type="qcurve" smooth="yes"/>
      <point x="500" y="778"/>
      <point x="367" y="627"/>
      <point x="367" y="494" type="qcurve" smooth="yes"/>
      <point x="367" y="361"/>
      <point x="498" y="211"/>
      <point x="614" y="211" type="qcurve" smooth="yes"/>
      <point x="732" y="211"/>
      <point x="862" y="359"/>
    </contour>
    <contour>
      <point x="1122" y="0" type="line"/>
      <point x="846" y="0" type="line"/>
      <point x="850" y="141" type="line"/>
      <point x="792" y="48"/>
      <point x="629" y="-39"/>
      <point x="512" y="-39" type="qcurve" smooth="yes"/>
      <point x="317" y="-39"/>
      <point x="78" y="251"/>
      <point x="78" y="489" type="qcurve" smooth="yes"/>
      <point x="78" y="738"/>
      <point x="313" y="1016"/>
      <point x="522" y="1016" type="qcurve" smooth="yes"/>
      <point x="629" y="1016"/>
      <point x="791" y="918"/>
      <point x="862" y="812" type="qcurve"/>
      <point x="857" y="848"/>
      <point x="852" y="935"/>
      <point x="852" y="991" type="qcurve" smooth="yes"/>
      <point x="852" y="1550" type="line"/>
      <point x="1122" y="1550" type="line"/>
    </contour>
  </outline>
</glyph>
<glyph name="e" format="2">
  <advance width="1174"/>
  <unicode hex="0065"/>
  <outline>
    <contour>
      <point x="815" y="592" type="line"/>
      <point x="803" y="685"/>
      <point x="692" y="780"/>
      <point x="596" y="780" type="qcurve" smooth="yes"/>
      <point x="500" y="780"/>
      <point x="385" y="685"/>
      <point x="369" y="592" type="qcurve"/>
    </contour>
    <contour>
      <point x="1097" y="420" type="qcurve"/>
      <point x="360" y="420" type="line"/>
      <point x="377" y="314"/>
      <point x="497" y="209"/>
      <point x="600" y="209" type="qcurve" smooth="yes"/>
      <point x="678" y="209"/>
      <point x="791" y="269"/>
      <point x="829" y="330" type="qcurve"/>
      <point x="1059" y="215" type="line"/>
      <point x="979" y="86"/>
      <point x="751" y="-39"/>
      <point x="594" y="-39" type="qcurve" smooth="yes"/>
      <point x="356" y="-39"/>
      <point x="78" y="245"/>
      <point x="78" y="485" type="qcurve" smooth="yes"/>
      <point x="78" y="716"/>
      <point x="369" y="1014"/>
      <point x="596" y="1014" type="qcurve" smooth="yes"/>
      <point x="830" y="1014"/>
      <point x="1102" y="735"/>
      <point x="1102" y="494" type="qcurve" smooth="yes"/>
      <point x="1102" y="481"/>
      <point x="1100" y="450"/>
    </contour>
  </outline>
</glyph>
<glyph name="f" format="2">
  <advance width="678"/>
  <unicode hex="0066"/>
  <outline>
    <contour>
      <point x="174" y="0" type="line"/>
      <point x="174" y="758" type="line"/>
      <point x="47" y="758" type="line"/>
      <point x="47" y="981" type="line"/>
      <point x="174" y="981" type="line"/>
      <point x="174" y="1202" type="line" smooth="yes"/>
      <point x="174" y="1400"/>
      <point x="356" y="1571"/>
      <point x="565" y="1571" type="qcurve" smooth="yes"/>
      <point x="588" y="1571"/>
      <point x="649" y="1562"/>
      <point x="698" y="1550" type="qcurve"/>
      <point x="698" y="1323" type="line"/>
      <point x="672" y="1337"/>
      <point x="624" y="1350"/>
      <point x="598" y="1350" type="qcurve" smooth="yes"/>
      <point x="523" y="1350"/>
      <point x="459" y="1271"/>
      <point x="459" y="1174" type="qcurve" smooth="yes"/>
      <point x="459" y="981" type="line"/>
      <point x="641" y="981" type="line"/>
      <point x="641" y="758" type="line"/>
      <point x="459" y="758" type="line"/>
      <point x="459" y="0" type="line"/>
    </contour>
  </outline>
</glyph>
<glyph name="k" format="2">
  <advance width="1157"/>
  <unicode hex="006B"/>
  <outline>
    <contour>
      <point x="139" y="1550" type="line"/>
      <point x="424" y="1550" type="line"/>
      <point x="424" y="547" type="line"/>
      <point x="788" y="981" type="line"/>
      <point x="1130" y="981" type="line"/>
      <point x="735" y="547" type="line"/>
      <point x="1169" y="0" type="line"/>
      <point x="817" y="0" type="line"/>
      <point x="424" y="520" type="line"/>
      <point x="424" y="0" type="line"/>
      <point x="139" y="0" type="line"/>
    </contour>
  </outline>
</glyph>
<glyph name="m" format="2">
  <advance width="1862"/>
  <unicode hex="006D"/>
  <outline>
    <contour>
      <point x="420" y="0" type="line"/>
      <point x="135" y="0" type="line"/>
      <point x="135" y="981" type="line"/>
      <point x="420" y="981" type="line"/>
      <point x="420" y="827" type="line"/>
      <point x="490" y="924"/>
      <point x="649" y="1014"/>
      <point x="750" y="1014" type="qcurve" smooth="yes"/>
      <point x="872" y="1014"/>
      <point x="1025" y="914"/>
      <point x="1057" y="813" type="qcurve"/>
      <point x="1125" y="913"/>
      <point x="1298" y="1014"/>
      <point x="1401" y="1014" type="qcurve" smooth="yes"/>
      <point x="1505" y="1014"/>
      <point x="1650" y="937"/>
      <point x="1690" y="860" type="qcurve" smooth="yes"/>
      <point x="1711" y="818"/>
      <point x="1729" y="712"/>
      <point x="1729" y="604" type="qcurve" smooth="yes"/>
      <point x="1729" y="573" type="line"/>
      <point x="1729" y="0" type="line"/>
      <point x="1444" y="0" type="line"/>
      <point x="1444" y="485" type="line" smooth="yes"/>
      <point x="1444" y="664"/>
      <point x="1371" y="782"/>
      <point x="1280" y="782" type="qcurve" smooth="yes"/>
      <point x="1170" y="782"/>
      <point x="1071" y="618"/>
      <point x="1071" y="432" type="qcurve" smooth="yes"/>
      <point x="1071" y="0" type="line"/>
      <point x="786" y="0" type="line"/>
      <point x="786" y="485" type="line" smooth="yes"/>
      <point x="786" y="658"/>
      <point x="718" y="780"/>
      <point x="635" y="780" type="qcurve" smooth="yes"/>
      <point x="522" y="780"/>
      <point x="420" y="615"/>
      <point x="420" y="432" type="qcurve" smooth="yes"/>
    </contour>
  </outline>
</glyph>
<glyph name="n" format="2">
  <advance width="1266"/>
  <unicode hex="006E"/>
  <outline>
    <contour>
      <point x="139" y="0" type="line"/>
      <point x="139" y="981" type="line"/>
      <point x="418" y="981" type="line"/>
      <point x="418" y="827" type="line"/>
      <point x="495" y="923"/>
      <point x="672" y="1014"/>
      <point x="780" y="1014" type="qcurve" smooth="yes"/>
      <point x="894" y="1014"/>
      <point x="1049" y="937"/>
      <point x="1094" y="858" type="qcurve" smooth="yes"/>
      <point x="1116" y="817"/>
      <point x="1135" y="714"/>
      <point x="1135" y="604" type="qcurve" smooth="yes"/>
      <point x="1135" y="573" type="line"/>
      <point x="1135" y="0" type="line"/>
      <point x="850" y="0" type="line"/>
      <point x="850" y="485" type="line" smooth="yes"/>
      <point x="850" y="666"/>
      <point x="766" y="782"/>
      <point x="664" y="782" type="qcurve" smooth="yes"/>
      <point x="605" y="782"/>
      <point x="506" y="733"/>
      <point x="473" y="688" type="qcurve" smooth="yes"/>
      <point x="447" y="653"/>
      <point x="424" y="563"/>
      <point x="424" y="471" type="qcurve" smooth="yes"/>
      <point x="424" y="432" type="line"/>
      <point x="424" y="0" type="line"/>
    </contour>
  </outline>
</glyph>
<glyph name="o" format="2">
  <advance width="1247"/>
  <unicode hex="006F"/>
  <outline>
    <contour>
      <point x="881" y="489" type="qcurve" smooth="yes"/>
      <point x="881" y="609"/>
      <point x="741" y="752"/>
      <point x="623" y="752" type="qcurve" smooth="yes"/>
      <point x="505" y="752"/>
      <point x="367" y="610"/>
      <point x="367" y="489" type="qcurve" smooth="yes"/>
      <point x="367" y="369"/>
      <point x="505" y="225"/>
      <point x="623" y="225" type="qcurve" smooth="yes"/>
      <point x="740" y="225"/>
      <point x="881" y="369"/>
    </contour>
    <contour>
      <point x="1171" y="487" type="qcurve" smooth="yes"/>
      <point x="1171" y="261"/>
      <point x="862" y="-39"/>
      <point x="625" y="-39" type="qcurve" smooth="yes"/>
      <point x="386" y="-39"/>
      <point x="76" y="261"/>
      <point x="76" y="487" type="qcurve" smooth="yes"/>
      <point x="76" y="712"/>
      <point x="388" y="1014"/>
      <point x="625" y="1014" type="qcurve" smooth="yes"/>
      <point x="863" y="1014"/>
      <point x="1171" y="716"/>
    </contour>
  </outline>
</glyph>
<glyph name="q" format="2">
  <advance width="1262"/>
  <unicode hex="0071"/>
  <outline>
    <contour>
      <point x="862" y="492" type="qcurve" smooth="yes"/>
      <point x="862" y="624"/>
      <point x="729" y="778"/>
      <point x="616" y="778" type="qcurve" smooth="yes"/>
      <point x="500" y="778"/>
      <point x="367" y="625"/>
      <point x="367" y="492" type="qcurve" smooth="yes"/>
      <point x="367" y="359"/>
      <point x="498" y="211"/>
      <point x="614" y="211" type="qcurve" smooth="yes"/>
      <point x="732" y="211"/>
      <point x="862" y="359"/>
    </contour>
    <contour>
      <point x="1122" y="-446" type="line"/>
      <point x="838" y="-446" type="line"/>
      <point x="838" y="-39" type="line" smooth="yes"/>
      <point x="838" y="8"/>
      <point x="844" y="99"/>
      <point x="850" y="141" type="qcurve"/>
      <point x="792" y="48"/>
      <point x="629" y="-39"/>
      <point x="512" y="-39" type="qcurve" smooth="yes"/>
      <point x="317" y="-39"/>
      <point x="78" y="251"/>
      <point x="78" y="489" type="qcurve" smooth="yes"/>
      <point x="78" y="737"/>
      <point x="313" y="1014"/>
      <point x="522" y="1014" type="qcurve" smooth="yes"/>
      <point x="631" y="1014"/>
      <point x="796" y="916"/>
      <point x="852" y="819" type="qcurve"/>
      <point x="852" y="981" type="line"/>
      <point x="1122" y="981" type="line"/>
    </contour>
  </outline>
</glyph>
<glyph name="r" format="2">
  <advance width="834"/>
  <unicode hex="0072"/>
  <outline>
    <contour>
      <point x="414" y="729" type="line"/>
      <point x="457" y="872"/>
      <point x="618" y="1014"/>
      <point x="737" y="1014" type="qcurve" smooth="yes"/>
      <point x="764" y="1014"/>
      <point x="826" y="1004" type="qcurve" smooth="yes"/>
      <point x="838" y="1002"/>
      <point x="844" y="1001" type="qcurve"/>
      <point x="801" y="695" type="line"/>
      <point x="769" y="708"/>
      <point x="704" y="721"/>
      <point x="668" y="721" type="qcurve" smooth="yes"/>
      <point x="538" y="721"/>
      <point x="424" y="588"/>
      <point x="424" y="432" type="qcurve" smooth="yes"/>
      <point x="424" y="0" type="line"/>
      <point x="139" y="0" type="line"/>
      <point x="139" y="981" type="line"/>
      <point x="420" y="981" type="line"/>
    </contour>
  </outline>
</glyph>
<glyph name="v" format="2">
  <advance width="1053"/>
  <unicode hex="0076"/>
  <outline>
    <contour>
      <point x="381" y="0" type="line"/>
      <point x="-18" y="981" type="line"/>
      <point x="311" y="981" type="line"/>
      <point x="477" y="471" type="line" smooth="yes"/>
      <point x="497" y="409"/>
      <point x="521" y="303"/>
      <point x="526" y="252" type="qcurve"/>
      <point x="538" y="329"/>
      <point x="562" y="437"/>
      <point x="578" y="481" type="qcurve" smooth="yes"/>
      <point x="745" y="981" type="line"/>
      <point x="1069" y="981" type="line"/>
      <point x="666" y="0" type="line"/>
    </contour>
  </outline>
</glyph>
<glyph name="y" format="2">
  <advance width="1053"/>
  <unicode hex="0079"/>
  <outline>
    <contour>
      <point x="381" y="76" type="line"/>
      <point x="-14" y="981" type="line"/>
      <point x="315" y="981" type="line"/>
      <point x="485" y="532" type="line" smooth="yes"/>
      <point x="502" y="490"/>
      <point x="524" y="381"/>
      <point x="530" y="314" type="qcurve"/>
      <point x="540" y="368"/>
      <point x="570" y="480"/>
      <point x="592" y="543" type="qcurve" smooth="yes"/>
      <point x="741" y="981" type="line"/>
      <point x="1067" y="981" type="line"/>
      <point x="483" y="-446" type="line"/>
      <point x="168" y="-446" type="line"/>
    </contour>
  </outline>
</glyph>
<glyph name="z" format="2">
  <advance width="985"/>
  <unicode hex="007A"/>
  <outline>
    <contour>
      <point x="940" y="0" type="line"/>
      <point x="0" y="0" type="line"/>
      <point x="520" y="758" type="line"/>
      <point x="63" y="758" type="line"/>
      <point x="63" y="981" type="line"/>
      <point x="952" y="981" type="line"/>
      <point x="438" y="223" type="line"/>
      <point x="940" y="223" type="line"/>
    </contour>
  </outline>
</glyph>
<glyph name="braceleft" format="2">
  <advance width="1024"/>
  <unicode hex="007B"/>
  <outline>
    <contour>
      <point x="883" y="1477" type="qcurve"/>
      <point x="883" y="1268" type="line"/>
      <point x="874" y="1268"/>
      <point x="842" y="1270"/>
      <point x="836" y="1270" type="qcurve" smooth="yes"/>
      <point x="735" y="1270"/>
      <point x="664" y="1193"/>
      <point x="664" y="1069" type="qcurve" smooth="yes"/>
      <point x="664" y="829" type="line" smooth="yes"/>
      <point x="664" y="681"/>
      <point x="574" y="557"/>
      <point x="457" y="530" type="qcurve"/>
      <point x="574" y="503"/>
      <point x="664" y="381"/>
      <point x="664" y="233" type="qcurve" smooth="yes"/>
      <point x="664" y="-8" type="line" smooth="yes"/>
      <point x="664" y="-131"/>
      <point x="734" y="-207"/>
      <point x="836" y="-207" type="qcurve" smooth="yes"/>
      <point x="842" y="-207"/>
      <point x="874" y="-205"/>
      <point x="883" y="-205" type="qcurve"/>
      <point x="883" y="-414" type="line"/>
      <point x="869" y="-414"/>
      <point x="819" y="-416"/>
      <point x="807" y="-416" type="qcurve" smooth="yes"/>
      <point x="707" y="-416"/>
      <point x="573" y="-392"/>
      <point x="526" y="-367" type="qcurve" smooth="yes"/>
      <point x="469" y="-333"/>
      <point x="422" y="-218"/>
      <point x="422" y="-76" type="qcurve" smooth="yes"/>
      <point x="422" y="176" type="line" smooth="yes"/>
      <point x="422" y="313"/>
      <point x="320" y="428"/>
      <point x="199" y="428" type="qcurve" smooth="yes"/>
      <point x="193" y="428"/>
      <point x="165" y="426"/>
      <point x="158" y="426" type="qcurve"/>
      <point x="158" y="635" type="line"/>
      <point x="165" y="635"/>
      <point x="193" y="633"/>
      <point x="199" y="633" type="qcurve" smooth="yes"/>
      <point x="319" y="633"/>
      <point x="422" y="749"/>
      <point x="422" y="887" type="qcurve" smooth="yes"/>
      <point x="422" y="1137" type="line" smooth="yes"/>
      <point x="422" y="1280"/>
      <point x="469" y="1396"/>
      <point x="526" y="1430" type="qcurve" smooth="yes"/>
      <point x="573" y="1455"/>
      <point x="707" y="1479"/>
      <point x="807" y="1479" type="qcurve" smooth="yes"/>
      <point x="819" y="1479"/>
      <point x="869" y="1477"/>
    </contour>
  </outline>
</glyph>
<glyph name="exclamdown" format="2">
  <advance width="688"/>
  <unicode hex="00A1"/>
  <outline>
    <contour>
      <point x="201" y="1004" type="line"/>
      <point x="485" y="1004" type="line"/>
      <point x="485" y="-39" type="line"/>
      <point x="201" y="-39" type="line"/>
    </contour>
    <contour>
      <point x="172" y="1327" type="qcurve" smooth="yes"/>
      <point x="172" y="1397"/>
      <point x="273" y="1497"/>
      <point x="344" y="1497" type="qcurve" smooth="yes"/>
      <point x="416" y="1497"/>
      <point x="514" y="1398"/>
      <point x="514" y="1327" type="qcurve" smooth="yes"/>
      <point x="514" y="1256"/>
      <point x="415" y="1157"/>
      <point x="344" y="1157" type="qcurve" smooth="yes"/>
      <point x="272" y="1157"/>
      <point x="172" y="1256"/>
    </contour>
  </outline>
</glyph>
<glyph name="sterling" format="2">
  <advance width="1255"/>
  <unicode hex="00A3"/>
  <outline>
    <contour>
      <point x="487" y="274" type="qcurve"/>
      <point x="504" y="274" type="line" smooth="yes"/>
      <point x="569" y="274"/>
      <point x="798" y="184"/>
      <point x="854" y="184" type="qcurve" smooth="yes"/>
      <point x="909" y="184"/>
      <point x="993" y="239"/>
      <point x="1026" y="295" type="qcurve"/>
      <point x="1180" y="131" type="line"/>
      <point x="1126" y="45"/>
      <point x="978" y="-43"/>
      <point x="889" y="-43" type="qcurve" smooth="yes"/>
      <point x="775" y="-43"/>
      <point x="461" y="70"/>
      <point x="422" y="70" type="qcurve" smooth="yes"/>
      <point x="370" y="70"/>
      <point x="260" y="6"/>
      <point x="215" y="-51" type="qcurve"/>
      <point x="59" y="102" type="line"/>
      <point x="127" y="189"/>
      <point x="259" y="275"/>
      <point x="336" y="283" type="qcurve"/>
      <point x="359" y="306"/>
      <point x="379" y="362"/>
      <point x="379" y="410" type="qcurve" smooth="yes"/>
      <point x="379" y="461"/>
      <point x="352" y="549"/>
      <point x="324" y="590" type="qcurve"/>
      <point x="98" y="590" type="line"/>
      <point x="98" y="733" type="line"/>
      <point x="260" y="733" type="line"/>
      <point x="206" y="813"/>
      <point x="154" y="963"/>
      <point x="154" y="1036" type="qcurve" smooth="yes"/>
      <point x="154" y="1224"/>
      <point x="461" y="1479"/>
      <point x="692" y="1479" type="qcurve" smooth="yes"/>
      <point x="903" y="1479"/>
      <point x="1182" y="1239"/>
      <point x="1188" y="1055" type="qcurve"/>
      <point x="911" y="1018" type="line"/>
      <point x="904" y="1124"/>
      <point x="786" y="1235"/>
      <point x="682" y="1235" type="qcurve" smooth="yes"/>
      <point x="582" y="1235"/>
      <point x="457" y="1126"/>
      <point x="457" y="1040" type="qcurve" smooth="yes"/>
      <point x="457" y="969"/>
      <point x="540" y="774" type="qcurve" smooth="yes"/>
      <point x="551" y="747"/>
      <point x="557" y="733" type="qcurve"/>
      <point x="924" y="733" type="line"/>
      <point x="924" y="590" type="line"/>
      <point x="609" y="590" type="line"/>
      <point x="611" y="563"/>
      <point x="614" y="530"/>
      <point x="614" y="520" type="qcurve" smooth="yes"/>
      <point x="614" y="449"/>
      <point x="556" y="335"/>
    </contour>
  </outline>
</glyph>
<glyph name="brokenbar" format="2">
  <advance width="1024"/>
  <unicode hex="00A6"/>
  <outline>
    <contour>
      <point x="410" y="408" type="line"/>
      <point x="616" y="408" type="line"/>
      <point x="616" y="-350" type="line"/>
      <point x="410" y="-350" type="line"/>
    </contour>
    <contour>
      <point x="410" y="1432" type="line"/>
      <point x="616" y="1432" type="line"/>
      <point x="616" y="674" type="line"/>
      <point x="410" y="674" type="line"/>
    </contour>
  </outline>
</glyph>
<glyph name="section" format="2">
  <advance width="1176"/>
  <unicode hex="00A7"/>
  <outline>
    <contour>
      <point x="414" y="874" type="qcurve"/>
      <point x="290" y="910"/>
      <point x="170" y="1051"/>
      <point x="170" y="1159" type="qcurve" smooth="yes"/>
      <point x="170" y="1309"/>
      <point x="415" y="1499"/>
      <point x="612" y="1499" type="qcurve" smooth="yes"/>
      <point x="798" y="1499"/>
      <point x="1014" y="1320"/>
      <point x="1014" y="1165" type="qcurve" smooth="yes"/>
      <point x="1014" y="1137" type="line"/>
      <point x="748" y="1137" type="line"/>
      <point x="743" y="1218"/>
      <point x="661" y="1294"/>
      <point x="575" y="1294" type="qcurve" smooth="yes"/>
      <point x="510" y="1294"/>
      <point x="426" y="1222"/>
      <point x="426" y="1165" type="qcurve" smooth="yes"/>
      <point x="426" y="1108"/>
      <point x="516" y="1019"/>
      <point x="612" y="981" type="qcurve" smooth="yes"/>
      <point x="909" y="866"/>
      <point x="1077" y="685"/>
      <point x="1077" y="545" type="qcurve" smooth="yes"/>
      <point x="1077" y="416"/>
      <point x="922" y="240"/>
      <point x="774" y="201" type="qcurve"/>
      <point x="887" y="162"/>
      <point x="1010" y="0"/>
      <point x="1010" y="-111" type="qcurve" smooth="yes"/>
      <point x="1010" y="-269"/>
      <point x="778" y="-453"/>
      <point x="575" y="-453" type="qcurve" smooth="yes"/>
      <point x="379" y="-453"/>
      <point x="141" y="-255"/>
      <point x="141" y="-94" type="qcurve" smooth="yes"/>
      <point x="141" y="-90"/>
      <point x="143" y="-69"/>
      <point x="143" y="-63" type="qcurve"/>
      <point x="408" y="-64" type="line"/>
      <point x="409" y="-154"/>
      <point x="496" y="-248"/>
      <point x="580" y="-248" type="qcurve" smooth="yes"/>
      <point x="660" y="-248"/>
      <point x="754" y="-166"/>
      <point x="754" y="-98" type="qcurve" smooth="yes"/>
      <point x="754" y="15"/>
      <point x="529" y="106" type="qcurve" smooth="yes"/>
      <point x="502" y="117"/>
      <point x="487" y="123" type="qcurve" smooth="yes"/>
      <point x="264" y="215"/>
      <point x="106" y="390"/>
      <point x="106" y="528" type="qcurve" smooth="yes"/>
      <point x="106" y="661"/>
      <point x="262" y="836"/>
    </contour>
    <contour>
      <point x="588" y="326" type="qcurve" smooth="yes"/>
      <point x="677" y="326"/>
      <point x="803" y="447"/>
      <point x="803" y="535" type="qcurve" smooth="yes"/>
      <point x="803" y="622"/>
      <point x="677" y="745"/>
      <point x="588" y="745" type="qcurve" smooth="yes"/>
      <point x="499" y="745"/>
      <point x="373" y="622"/>
      <point x="373" y="535" type="qcurve" smooth="yes"/>
      <point x="373" y="447"/>
      <point x="498" y="326"/>
    </contour>
  </outline>
</glyph>
<glyph name="copyright" format="2">
  <advance width="1706"/>
  <unicode hex="00A9"/>
  <outline>
    <contour>
      <point x="1212" y="897" type="qcurve"/>
      <point x="1024" y="897" type="line"/>
      <point x="1016" y="967"/>
      <point x="926" y="1044"/>
      <point x="852" y="1044" type="qcurve" smooth="yes"/>
      <point x="761" y="1044"/>
      <point x="657" y="881"/>
      <point x="657" y="735" type="qcurve" smooth="yes"/>
      <point x="657" y="588"/>
      <point x="761" y="434"/>
      <point x="860" y="434" type="qcurve" smooth="yes"/>
      <point x="933" y="434"/>
      <point x="1021" y="518"/>
      <point x="1030" y="595" type="qcurve"/>
      <point x="1223" y="596" type="line"/>
      <point x="1215" y="457"/>
      <point x="1013" y="289"/>
      <point x="854" y="289" type="qcurve" smooth="yes"/>
      <point x="668" y="289"/>
      <point x="453" y="525"/>
      <point x="453" y="729" type="qcurve" smooth="yes"/>
      <point x="453" y="935"/>
      <point x="672" y="1180"/>
      <point x="856" y="1180" type="qcurve" smooth="yes"/>
      <point x="1008" y="1180"/>
      <point x="1205" y="1024"/>
    </contour>
    <contour>
      <point x="854" y="1356" type="qcurve" smooth="yes"/>
      <point x="726" y="1356"/>
      <point x="503" y="1264"/>
      <point x="416" y="1176" type="qcurve" smooth="yes"/>
      <point x="327" y="1086"/>
      <point x="233" y="859"/>
      <point x="233" y="735" type="qcurve" smooth="yes"/>
      <point x="233" y="610"/>
      <point x="327" y="386"/>
      <point x="416" y="297" type="qcurve" smooth="yes"/>
      <point x="504" y="209"/>
      <point x="730" y="115"/>
      <point x="854" y="115" type="qcurve" smooth="yes"/>
      <point x="978" y="115"/>
      <point x="1205" y="209"/>
      <point x="1296" y="299" type="qcurve" smooth="yes"/>
      <point x="1384" y="385"/>
      <point x="1475" y="607"/>
      <point x="1475" y="735" type="qcurve" smooth="yes"/>
      <point x="1475" y="861"/>
      <point x="1382" y="1086"/>
      <point x="1294" y="1174" type="qcurve" smooth="yes"/>
      <point x="1205" y="1263"/>
      <point x="981" y="1356"/>
    </contour>
    <contour>
      <point x="852" y="1479" type="qcurve" smooth="yes"/>
      <point x="1004" y="1479"/>
      <point x="1275" y="1367"/>
      <point x="1382" y="1260" type="qcurve" smooth="yes"/>
      <point x="1487" y="1155"/>
      <point x="1597" y="884"/>
      <point x="1597" y="733" type="qcurve" smooth="yes"/>
      <point x="1597" y="581"/>
      <point x="1488" y="317"/>
      <point x="1382" y="213" type="qcurve" smooth="yes"/>
      <point x="1271" y="105"/>
      <point x="997" y="-10"/>
      <point x="852" y="-10" type="qcurve" smooth="yes"/>
      <point x="705" y="-10"/>
      <point x="438" y="103"/>
      <point x="330" y="211" type="qcurve" smooth="yes"/>
      <point x="223" y="317"/>
      <point x="111" y="586"/>
      <point x="111" y="733" type="qcurve" smooth="yes"/>
      <point x="111" y="882"/>
      <point x="223" y="1153"/>
      <point x="330" y="1262" type="qcurve" smooth="yes"/>
      <point x="435" y="1368"/>
      <point x="701" y="1479"/>
    </contour>
  </outline>
</glyph>
<glyph name="logicalnot" format="2">
  <advance width="1706"/>
  <unicode hex="00AC"/>
  <outline>
    <contour>
      <point x="254" y="864" type="line"/>
      <point x="1452" y="864" type="line"/>
      <point x="1452" y="362" type="line"/>
      <point x="1253" y="362" type="line"/>
      <point x="1253" y="668" type="line"/>
      <point x="254" y="668" type="line"/>
    </contour>
  </outline>
</glyph>
<glyph name="degree" format="2">
  <advance width="674"/>
  <unicode hex="00B0"/>
  <outline>
    <contour>
      <point x="338" y="1335" type="qcurve" smooth="yes"/>
      <point x="265" y="1335"/>
      <point x="162" y="1233"/>
      <point x="162" y="1161" type="qcurve" smooth="yes"/>
      <point x="162" y="1087"/>
      <point x="264" y="985"/>
      <point x="338" y="985" type="qcurve" smooth="yes"/>
      <point x="410" y="985"/>
      <point x="512" y="1089"/>
      <point x="512" y="1161" type="qcurve" smooth="yes"/>
      <point x="512" y="1233"/>
      <point x="410" y="1335"/>
    </contour>
    <contour>
      <point x="338" y="1464" type="qcurve" smooth="yes"/>
      <point x="464" y="1464"/>
      <point x="641" y="1285"/>
      <point x="641" y="1159" type="qcurve" smooth="yes"/>
      <point x="641" y="1034"/>
      <point x="463" y="856"/>
      <point x="336" y="856" type="qcurve" smooth="yes"/>
      <point x="210" y="856"/>
      <point x="35" y="1032"/>
      <point x="35" y="1159" type="qcurve" smooth="yes"/>
      <point x="35" y="1286"/>
      <point x="212" y="1464"/>
    </contour>
  </outline>
</glyph>
<glyph name="plusminus" format="2">
  <advance width="1706"/>
  <unicode hex="00B1"/>
  <outline>
    <contour>
      <point x="254" y="197" type="line"/>
      <point x="1452" y="197" type="line"/>
      <point x="1452" y="-2" type="line"/>
      <point x="254" y="-2" type="line"/>
    </contour>
    <contour>
      <point x="752" y="1223" type="line"/>
      <point x="954" y="1223" type="line"/>
      <point x="954" y="897" type="line"/>
      <point x="1452" y="897" type="line"/>
      <point x="1452" y="698" type="line"/>
      <point x="954" y="698" type="line"/>
      <point x="954" y="373" type="line"/>
      <point x="752" y="373" type="line"/>
      <point x="752" y="698" type="line"/>
      <point x="254" y="698" type="line"/>
      <point x="254" y="897" type="line"/>
      <point x="752" y="897" type="line"/>
    </contour>
  </outline>
</glyph>
<glyph name="twosuperior" format="2">
  <advance width="829"/>
  <unicode hex="00B2"/>
  <outline>
    <contour>
      <point x="721" y="721" type="line"/>
      <point x="721" y="575" type="line"/>
      <point x="53" y="575" type="line"/>
      <point x="395" y="985" type="line" smooth="yes"/>
      <point x="467" y="1069"/>
      <point x="522" y="1166"/>
      <point x="522" y="1204" type="qcurve" smooth="yes"/>
      <point x="522" y="1256"/>
      <point x="455" y="1315"/>
      <point x="395" y="1315" type="qcurve" smooth="yes"/>
      <point x="341" y="1315"/>
      <point x="274" y="1240"/>
      <point x="274" y="1178" type="qcurve" smooth="yes"/>
      <point x="274" y="1174" type="line"/>
      <point x="80" y="1174" type="line"/>
      <point x="80" y="1188" type="line" smooth="yes"/>
      <point x="80" y="1319"/>
      <point x="245" y="1462"/>
      <point x="395" y="1462" type="qcurve" smooth="yes"/>
      <point x="551" y="1462"/>
      <point x="721" y="1334"/>
      <point x="721" y="1219" type="qcurve" smooth="yes"/>
      <point x="721" y="1087"/>
      <point x="492" y="829" type="qcurve"/>
      <point x="486" y="822" type="line"/>
      <point x="395" y="721" type="line"/>
    </contour>
  </outline>
</glyph>
<glyph name="threesuperior" format="2">
  <advance width="829"/>
  <unicode hex="00B3"/>
  <outline>
    <contour>
      <point x="70" y="807" type="line"/>
      <point x="260" y="807" type="line"/>
      <point x="260" y="805" type="line" smooth="yes"/>
      <point x="260" y="757"/>
      <point x="339" y="698"/>
      <point x="403" y="698" type="qcurve" smooth="yes"/>
      <point x="476" y="698"/>
      <point x="555" y="764"/>
      <point x="555" y="825" type="qcurve" smooth="yes"/>
      <point x="555" y="889"/>
      <point x="474" y="954"/>
      <point x="393" y="954" type="qcurve" smooth="yes"/>
      <point x="369" y="954" type="line"/>
      <point x="369" y="1108" type="line" smooth="yes"/>
      <point x="371" y="1108"/>
      <point x="387" y="1106"/>
      <point x="391" y="1106" type="qcurve" smooth="yes"/>
      <point x="462" y="1106"/>
      <point x="535" y="1162"/>
      <point x="535" y="1217" type="qcurve" smooth="yes"/>
      <point x="535" y="1263"/>
      <point x="469" y="1321"/>
      <point x="416" y="1321" type="qcurve" smooth="yes"/>
      <point x="359" y="1321"/>
      <point x="295" y="1275"/>
      <point x="289" y="1231" type="qcurve"/>
      <point x="104" y="1231" type="line"/>
      <point x="111" y="1342"/>
      <point x="275" y="1462"/>
      <point x="422" y="1462" type="qcurve" smooth="yes"/>
      <point x="563" y="1462"/>
      <point x="727" y="1336"/>
      <point x="727" y="1229" type="qcurve" smooth="yes"/>
      <point x="727" y="1155"/>
      <point x="637" y="1049"/>
      <point x="565" y="1038" type="qcurve"/>
      <point x="650" y="1021"/>
      <point x="750" y="899"/>
      <point x="750" y="813" type="qcurve" smooth="yes"/>
      <point x="750" y="692"/>
      <point x="562" y="553"/>
      <point x="399" y="553" type="qcurve" smooth="yes"/>
      <point x="249" y="553"/>
      <point x="70" y="689"/>
      <point x="70" y="801" type="qcurve" smooth="yes"/>
    </contour>
  </outline>
</glyph>
<glyph name="acute" format="2">
  <advance width="1024"/>
  <unicode hex="00B4"/>
  <outline>
    <contour>
      <point x="805" y="1495" type="line"/>
      <point x="492" y="1126" type="line"/>
      <point x="350" y="1126" type="line"/>
      <point x="547" y="1495" type="line"/>
    </contour>
  </outline>
</glyph>
<glyph name="cedilla" format="2">
  <advance width="1024"/>
  <unicode hex="00B8"/>
  <outline>
    <contour>
      <point x="238" y="-438" type="qcurve"/>
      <point x="238" y="-311" type="line"/>
      <point x="318" y="-332"/>
      <point x="452" y="-354"/>
      <point x="496" y="-354" type="qcurve" smooth="yes"/>
      <point x="547" y="-354"/>
      <point x="596" y="-317"/>
      <point x="596" y="-279" type="qcurve" smooth="yes"/>
      <point x="596" y="-242"/>
      <point x="541" y="-211"/>
      <point x="475" y="-211" type="qcurve" smooth="yes"/>
      <point x="456" y="-211"/>
      <point x="430" y="-212"/>
      <point x="418" y="-213" type="qcurve"/>
      <point x="418" y="0" type="line"/>
      <point x="520" y="0" type="line"/>
      <point x="520" y="-90" type="line"/>
      <point x="535" y="-90" type="line" smooth="yes"/>
      <point x="651" y="-90"/>
      <point x="770" y="-187"/>
      <point x="770" y="-283" type="qcurve" smooth="yes"/>
      <point x="770" y="-382"/>
      <point x="637" y="-481"/>
      <point x="504" y="-481" type="qcurve" smooth="yes"/>
      <point x="455" y="-481"/>
      <point x="316" y="-459"/>
    </contour>
  </outline>
</glyph>
<glyph name="onesuperior" format="2">
  <advance width="829"/>
  <unicode hex="00B9"/>
  <outline>
    <contour>
      <point x="338" y="575" type="line"/>
      <point x="338" y="1298" type="line"/>
      <point x="143" y="1298" type="line"/>
      <point x="225" y="1446" type="line"/>
      <point x="532" y="1446" type="line"/>
      <point x="532" y="575" type="line"/>
    </contour>
  </outline>
</glyph>
<glyph name="ordmasculine" format="2">
  <advance width="934"/>
  <unicode hex="00BA"/>
  <outline>
    <contour>
      <point x="109" y="610" type="line"/>
      <point x="825" y="610" type="line"/>
      <point x="825" y="487" type="line"/>
      <point x="109" y="487" type="line"/>
    </contour>
    <contour>
      <point x="467" y="1298" type="qcurve" smooth="yes"/>
      <point x="382" y="1298"/>
      <point x="283" y="1203"/>
      <point x="283" y="1122" type="qcurve" smooth="yes"/>
      <point x="283" y="1041"/>
      <point x="382" y="946"/>
      <point x="467" y="946" type="qcurve" smooth="yes"/>
      <point x="552" y="946"/>
      <point x="651" y="1041"/>
      <point x="651" y="1122" type="qcurve" smooth="yes"/>
      <point x="651" y="1203"/>
      <point x="552" y="1298"/>
    </contour>
    <contour>
      <point x="469" y="1497" type="qcurve" smooth="yes"/>
      <point x="652" y="1497"/>
      <point x="887" y="1285"/>
      <point x="887" y="1122" type="qcurve" smooth="yes"/>
      <point x="887" y="960"/>
      <point x="651" y="745"/>
      <point x="469" y="745" type="qcurve" smooth="yes"/>
      <point x="285" y="745"/>
      <point x="47" y="961"/>
      <point x="47" y="1122" type="qcurve" smooth="yes"/>
      <point x="47" y="1281"/>
      <point x="288" y="1497"/>
    </contour>
  </outline>
</glyph>
<glyph name="guillemotright" format="2">
  <advance width="1059"/>
  <unicode hex="00BB"/>
  <outline>
    <contour>
      <point x="485" y="836" type="line"/>
      <point x="639" y="942" type="line"/>
      <point x="995" y="487" type="line"/>
      <point x="641" y="33" type="line"/>
      <point x="494" y="139" type="line"/>
      <point x="762" y="485" type="line"/>
    </contour>
    <contour>
      <point x="63" y="836" type="line"/>
      <point x="217" y="942" type="line"/>
      <point x="573" y="487" type="line"/>
      <point x="221" y="33" type="line"/>
      <point x="72" y="139" type="line"/>
      <point x="342" y="485" type="line"/>
    </contour>
  </outline>
</glyph>
<glyph name="threequarters" format="2">
  <advance width="1923"/>
  <unicode hex="00BE"/>
  <outline>
    <contour>
      <point x="1606" y="0" type="line"/>
      <point x="1606" y="158" type="line"/>
      <point x="1161" y="158" type="line"/>
      <point x="1161" y="233" type="line"/>
      <point x="1606" y="827" type="line"/>
      <point x="1776" y="827" type="line"/>
      <point x="1776" y="274" type="line"/>
      <point x="1872" y="274" type="line"/>
      <point x="1872" y="158" type="line"/>
      <point x="1776" y="158" type="line"/>
      <point x="1776" y="0" type="line"/>
    </contour>
    <contour>
      <point x="1608" y="274" type="line"/>
      <point x="1608" y="557" type="line" smooth="yes"/>
      <point x="1608" y="598"/>
      <point x="1612" y="639"/>
      <point x="1616" y="657" type="qcurve"/>
      <point x="1598" y="620"/>
      <point x="1567" y="566"/>
      <point x="1550" y="545" type="qcurve" smooth="yes"/>
      <point x="1352" y="274" type="line"/>
    </contour>
    <contour>
      <point x="449" y="-39" type="line"/>
      <point x="1323" y="1479" type="line"/>
      <point x="1473" y="1479" type="line"/>
      <point x="598" y="-39" type="line"/>
    </contour>
    <contour>
      <point x="68" y="850" type="line"/>
      <point x="250" y="850" type="line"/>
      <point x="250" y="848" type="line" smooth="yes"/>
      <point x="250" y="803"/>
      <point x="324" y="748"/>
      <point x="385" y="748" type="qcurve" smooth="yes"/>
      <point x="455" y="748"/>
      <point x="530" y="809"/>
      <point x="530" y="866" type="qcurve" smooth="yes"/>
      <point x="530" y="926"/>
      <point x="452" y="987"/>
      <point x="375" y="987" type="qcurve" smooth="yes"/>
      <point x="372" y="987"/>
      <point x="356" y="985"/>
      <point x="350" y="985" type="qcurve"/>
      <point x="350" y="1128" type="line"/>
      <point x="373" y="1128" type="line" smooth="yes"/>
      <point x="441" y="1128"/>
      <point x="510" y="1180"/>
      <point x="510" y="1231" type="qcurve" smooth="yes"/>
      <point x="510" y="1275"/>
      <point x="447" y="1329"/>
      <point x="395" y="1329" type="qcurve" smooth="yes"/>
      <point x="342" y="1329"/>
      <point x="281" y="1285"/>
      <point x="274" y="1243" type="qcurve"/>
      <point x="100" y="1243" type="line"/>
      <point x="107" y="1348"/>
      <point x="263" y="1460"/>
      <point x="403" y="1460" type="qcurve" smooth="yes"/>
      <point x="538" y="1460"/>
      <point x="694" y="1343"/>
      <point x="694" y="1243" type="qcurve" smooth="yes"/>
      <point x="694" y="1174"/>
      <point x="609" y="1076"/>
      <point x="539" y="1065" type="qcurve"/>
      <point x="621" y="1048"/>
      <point x="717" y="935"/>
      <point x="717" y="854" type="qcurve" smooth="yes"/>
      <point x="717" y="741"/>
      <point x="536" y="610"/>
      <point x="381" y="610" type="qcurve" smooth="yes"/>
      <point x="240" y="610"/>
      <point x="68" y="738"/>
      <point x="68" y="842" type="qcurve" smooth="yes"/>
    </contour>
  </outline>
</glyph>
<glyph name="Aring" format="2">
  <advance width="1460"/>
  <unicode hex="00C5"/>
  <outline>
    <contour>
      <point x="608" y="1712" type="qcurve" smooth="yes"/>
      <point x="608" y="1663"/>
      <point x="678" y="1593"/>
      <point x="727" y="1593" type="qcurve" smooth="yes"/>
      <point x="777" y="1593"/>
      <point x="846" y="1662"/>
      <point x="846" y="1712" type="qcurve" smooth="yes"/>
      <point x="846" y="1762"/>
      <point x="777" y="1831"/>
      <point x="727" y="1831" type="qcurve" smooth="yes"/>
      <point x="678" y="1831"/>
      <point x="608" y="1761"/>
    </contour>
    <contour>
      <point x="674" y="1036" type="qcurve" smooth="yes"/>
      <point x="516" y="557" type="line"/>
      <point x="922" y="557" type="line"/>
      <point x="758" y="1040" type="line" smooth="yes"/>
      <point x="749" y="1070"/>
      <point x="726" y="1175"/>
      <point x="717" y="1237" type="qcurve"/>
      <point x="705" y="1167"/>
      <point x="682" y="1059"/>
    </contour>
    <contour>
      <point x="-10" y="0" type="line"/>
      <point x="547" y="1464" type="line"/>
      <point x="668" y="1464" type="line"/>
      <point x="574" y="1483"/>
      <point x="467" y="1615"/>
      <point x="467" y="1712" type="qcurve" smooth="yes"/>
      <point x="467" y="1820"/>
      <point x="619" y="1972"/>
      <point x="727" y="1972" type="qcurve" smooth="yes"/>
      <point x="836" y="1972"/>
      <point x="987" y="1820"/>
      <point x="987" y="1712" type="qcurve" smooth="yes"/>
      <point x="987" y="1618"/>
      <point x="886" y="1487"/>
      <point x="795" y="1464" type="qcurve"/>
      <point x="905" y="1464" type="line"/>
      <point x="1470" y="0" type="line"/>
      <point x="1114" y="0" type="line"/>
      <point x="995" y="311" type="line"/>
      <point x="428" y="311" type="line"/>
      <point x="326" y="0" type="line"/>
    </contour>
  </outline>
</glyph>
<glyph name="multiply" format="2">
  <advance width="1706"/>
  <unicode hex="00D7"/>
  <outline>
    <contour>
      <point x="416" y="1202" type="line"/>
      <point x="866" y="752" type="line"/>
      <point x="1317" y="1202" type="line"/>
      <point x="1458" y="1063" type="line"/>
      <point x="1008" y="610" type="line"/>
      <point x="1458" y="160" type="line"/>
      <point x="1317" y="20" type="line"/>
      <point x="866" y="471" type="line"/>
      <point x="416" y="20" type="line"/>
      <point x="276" y="160" type="line"/>
      <point x="727" y="610" type="line"/>
      <point x="276" y="1063" type="line"/>
    </contour>
  </outline>
</glyph>
<glyph name="ae" format="2">
  <advance width="1841"/>
  <unicode hex="00E6"/>
  <outline>
    <contour>
      <point x="1755" y="420" type="qcurve"/>
      <point x="987" y="420" type="line"/>
      <point x="1004" y="314"/>
      <point x="1129" y="209"/>
      <point x="1237" y="209" type="qcurve" smooth="yes"/>
      <point x="1317" y="209"/>
      <point x="1435" y="269"/>
      <point x="1475" y="330" type="qcurve"/>
      <point x="1714" y="213" type="line"/>
      <point x="1634" y="89"/>
      <point x="1398" y="-39"/>
      <point x="1249" y="-39" type="qcurve" smooth="yes"/>
      <point x="1133" y="-39"/>
      <point x="954" y="39"/>
      <point x="885" y="121" type="qcurve"/>
      <point x="809" y="47"/>
      <point x="583" y="-39"/>
      <point x="463" y="-39" type="qcurve" smooth="yes"/>
      <point x="287" y="-39"/>
      <point x="61" y="153"/>
      <point x="61" y="301" type="qcurve" smooth="yes"/>
      <point x="61" y="449"/>
      <point x="274" y="627"/>
      <point x="451" y="627" type="qcurve" smooth="yes"/>
      <point x="539" y="627"/>
      <point x="685" y="592"/>
      <point x="750" y="556" type="qcurve"/>
      <point x="753" y="570"/>
      <point x="756" y="595"/>
      <point x="756" y="606" type="qcurve" smooth="yes"/>
      <point x="756" y="700"/>
      <point x="599" y="811"/>
      <point x="467" y="811" type="qcurve" smooth="yes"/>
      <point x="388" y="811"/>
      <point x="245" y="766"/>
      <point x="154" y="711" type="qcurve"/>
      <point x="154" y="940" type="line"/>
      <point x="230" y="980"/>
      <point x="398" y="1018"/>
      <point x="498" y="1018" type="qcurve" smooth="yes"/>
      <point x="627" y="1018"/>
      <point x="823" y="943"/>
      <point x="885" y="870" type="qcurve"/>
      <point x="960" y="947"/>
      <point x="1129" y="1018"/>
      <point x="1235" y="1018" type="qcurve" smooth="yes"/>
      <point x="1471" y="1018"/>
      <point x="1757" y="739"/>
      <point x="1757" y="510" type="qcurve" smooth="yes"/>
      <point x="1757" y="480"/>
      <point x="1756" y="440"/>
    </contour>
    <contour>
      <point x="1462" y="592" type="line"/>
      <point x="1450" y="684"/>
      <point x="1333" y="778"/>
      <point x="1231" y="778" type="qcurve" smooth="yes"/>
      <point x="1131" y="778"/>
      <point x="1014" y="686"/>
      <point x="995" y="592" type="qcurve"/>
    </contour>
    <contour>
      <point x="762" y="309" type="qcurve" smooth="yes"/>
      <point x="762" y="372"/>
      <point x="644" y="449"/>
      <point x="547" y="449" type="qcurve" smooth="yes"/>
      <point x="448" y="449"/>
      <point x="332" y="371"/>
      <point x="332" y="305" type="qcurve" smooth="yes"/>
      <point x="332" y="244"/>
      <point x="439" y="170"/>
      <point x="528" y="170" type="qcurve" smooth="yes"/>
      <point x="637" y="170"/>
      <point x="762" y="245"/>
    </contour>
  </outline>
</glyph>
<glyph name="eth" format="2">
  <advance width="1276"/>
  <unicode hex="00F0"/>
  <outline>
    <contour>
      <point x="881" y="475" type="qcurve" smooth="yes"/>
      <point x="881" y="590"/>
      <point x="741" y="725"/>
      <point x="623" y="725" type="qcurve" smooth="yes"/>
      <point x="504" y="725"/>
      <point x="365" y="590"/>
      <point x="365" y="475" type="qcurve" smooth="yes"/>
      <point x="365" y="361"/>
      <point x="504" y="225"/>
      <point x="623" y="225" type="qcurve" smooth="yes"/>
      <point x="741" y="225"/>
      <point x="881" y="361"/>
    </contour>
    <contour>
      <point x="813" y="897" type="qcurve"/>
      <point x="758" y="980"/>
      <point x="636" y="1110"/>
      <point x="565" y="1159" type="qcurve"/>
      <point x="231" y="999" type="line"/>
      <point x="162" y="1126" type="line"/>
      <point x="432" y="1253" type="line"/>
      <point x="396" y="1278"/>
      <point x="318" y="1322"/>
      <point x="260" y="1350" type="qcurve"/>
      <point x="377" y="1546" type="line"/>
      <point x="444" y="1517"/>
      <point x="593" y="1429"/>
      <point x="678" y="1368" type="qcurve"/>
      <point x="997" y="1524" type="line"/>
      <point x="1073" y="1397" type="line"/>
      <point x="809" y="1270" type="line"/>
      <point x="996" y="1093"/>
      <point x="1165" y="745"/>
      <point x="1165" y="537" type="qcurve" smooth="yes"/>
      <point x="1165" y="263"/>
      <point x="881" y="-39"/>
      <point x="625" y="-39" type="qcurve" smooth="yes"/>
      <point x="386" y="-39"/>
      <point x="76" y="250"/>
      <point x="76" y="467" type="qcurve" smooth="yes"/>
      <point x="76" y="675"/>
      <point x="364" y="963"/>
      <point x="573" y="963" type="qcurve" smooth="yes"/>
      <point x="642" y="963"/>
      <point x="760" y="930"/>
    </contour>
  </outline>
</glyph>
<glyph name="divide" format="2">
  <advance width="1706"/>
  <unicode hex="00F7"/>
  <outline>
    <contour>
      <point x="854" y="369" type="qcurve" smooth="yes"/>
      <point x="916" y="369"/>
      <point x="1006" y="279"/>
      <point x="1006" y="217" type="qcurve" smooth="yes"/>
      <point x="1006" y="156"/>
      <point x="916" y="68"/>
      <point x="854" y="68" type="qcurve" smooth="yes"/>
      <point x="791" y="68"/>
      <point x="702" y="154"/>
      <point x="702" y="217" type="qcurve" smooth="yes"/>
      <point x="702" y="280"/>
      <point x="791" y="369"/>
    </contour>
    <contour>
      <point x="254" y="711" type="line"/>
      <point x="1452" y="711" type="line"/>
      <point x="1452" y="512" type="line"/>
      <point x="254" y="512" type="line"/>
    </contour>
    <contour>
      <point x="854" y="1155" type="qcurve" smooth="yes"/>
      <point x="916" y="1155"/>
      <point x="1006" y="1066"/>
      <point x="1006" y="1004" type="qcurve" smooth="yes"/>
      <point x="1006" y="941"/>
      <point x="917" y="852"/>
      <point x="854" y="852" type="qcurve" smooth="yes"/>
      <point x="791" y="852"/>
      <point x="702" y="941"/>
      <point x="702" y="1004" type="qcurve" smooth="yes"/>
      <point x="702" y="1067"/>
      <point x="791" y="1155"/>
    </contour>
  </outline>
</glyph>
<glyph name="oslash" format="2">
  <advance width="1247"/>
  <unicode hex="00F8"/>
  <outline>
    <contour>
      <point x="467" y="270" type="line"/>
      <point x="503" y="247"/>
      <point x="577" y="225"/>
      <point x="629" y="225" type="qcurve" smooth="yes"/>
      <point x="744" y="225"/>
      <point x="885" y="371"/>
      <point x="885" y="489" type="qcurve" smooth="yes"/>
      <point x="885" y="524"/>
      <point x="868" y="586"/>
      <point x="848" y="623" type="qcurve"/>
    </contour>
    <contour>
      <point x="770" y="713" type="line"/>
      <point x="732" y="733"/>
      <point x="658" y="752"/>
      <point x="614" y="752" type="qcurve" smooth="yes"/>
      <point x="501" y="752"/>
      <point x="365" y="608"/>
      <point x="365" y="485" type="qcurve" smooth="yes"/>
      <point x="365" y="451"/>
      <point x="377" y="392"/>
      <point x="389" y="365" type="qcurve"/>
    </contour>
    <contour>
      <point x="115" y="-55" type="line"/>
      <point x="43" y="45" type="line"/>
      <point x="182" y="172" type="line"/>
      <point x="130" y="235"/>
      <point x="78" y="392"/>
      <point x="78" y="485" type="qcurve" smooth="yes"/>
      <point x="78" y="713"/>
      <point x="388" y="1014"/>
      <point x="625" y="1014" type="qcurve" smooth="yes"/>
      <point x="730" y="1014"/>
      <point x="892" y="962"/>
      <point x="977" y="903" type="qcurve"/>
      <point x="1120" y="1036" type="line"/>
      <point x="1206" y="950" type="line"/>
      <point x="1059" y="813" type="line"/>
      <point x="1118" y="742"/>
      <point x="1171" y="584"/>
      <point x="1171" y="479" type="qcurve" smooth="yes"/>
      <point x="1171" y="260"/>
      <point x="860" y="-39"/>
      <point x="625" y="-39" type="qcurve" smooth="yes"/>
      <point x="515" y="-39"/>
      <point x="331" y="24"/>
      <point x="266" y="84" type="qcurve"/>
    </contour>
  </outline>
</glyph>
<glyph name="dotlessi" format="2">
  <advance width="584"/>
  <unicode hex="0131"/>
  <outline>
    <contour>
      <point x="150" y="0" type="line"/>
      <point x="150" y="981" type="line"/>
      <point x="434" y="981" type="line"/>
      <point x="434" y="0" type="line"/>
    </contour>
  </outline>
</glyph>
<glyph name="lslash" format="2">
  <advance width="621"/>
  <unicode hex="0142"/>
  <outline>
    <contour>
      <point x="168" y="0" type="line"/>
      <point x="168" y="518" type="line"/>
      <point x="72" y="449" type="line"/>
      <point x="-35" y="604" type="line"/>
      <point x="168" y="748" type="line"/>
      <point x="168" y="1550" type="line"/>
      <point x="453" y="1550" type="line"/>
      <point x="453" y="934" type="line"/>
      <point x="549" y="1004" type="line"/>
      <point x="655" y="850" type="line"/>
      <point x="453" y="705" type="line"/>
      <point x="453" y="0" type="line"/>
    </contour>
  </outline>
</glyph>
<glyph name="breve" format="2">
  <advance width="1024"/>
  <unicode hex="02D8"/>
  <outline>
    <contour>
      <point x="203" y="1462" type="qcurve"/>
      <point x="326" y="1462" type="line"/>
      <point x="332" y="1385"/>
      <point x="422" y="1313"/>
      <point x="512" y="1313" type="qcurve" smooth="yes"/>
      <point x="603" y="1313"/>
      <point x="690" y="1384"/>
      <point x="696" y="1462" type="qcurve"/>
      <point x="819" y="1462" type="line"/>
      <point x="807" y="1304"/>
      <point x="660" y="1159"/>
      <point x="512" y="1159" type="qcurve" smooth="yes"/>
      <point x="364" y="1159"/>
      <point x="213" y="1308"/>
    </contour>
  </outline>
</glyph>
<glyph name="tilde" format="2">
  <advance width="1024"/>
  <unicode hex="02DC"/>
  <outline>
    <contour>
      <point x="829" y="1446" type="line"/>
      <point x="801" y="1319"/>
      <point x="701" y="1204"/>
      <point x="621" y="1204" type="qcurve" smooth="yes"/>
      <point x="600" y="1204"/>
      <point x="564" y="1209"/>
      <point x="546" y="1215" type="qcurve" smooth="yes"/>
      <point x="459" y="1241" type="line" smooth="yes"/>
      <point x="438" y="1247"/>
      <point x="408" y="1251"/>
      <point x="393" y="1251" type="qcurve" smooth="yes"/>
      <point x="359" y="1251"/>
      <point x="317" y="1214"/>
      <point x="305" y="1174" type="qcurve"/>
      <point x="195" y="1174" type="line"/>
      <point x="221" y="1296"/>
      <point x="320" y="1409"/>
      <point x="399" y="1409" type="qcurve" smooth="yes"/>
      <point x="417" y="1409"/>
      <point x="461" y="1402"/>
      <point x="485" y="1395" type="qcurve" smooth="yes"/>
      <point x="578" y="1370" type="line" smooth="yes"/>
      <point x="590" y="1366"/>
      <point x="617" y="1362"/>
      <point x="633" y="1362" type="qcurve" smooth="yes"/>
      <point x="666" y="1362"/>
      <point x="708" y="1403"/>
      <point x="719" y="1446" type="qcurve"/>
    </contour>
  </outline>
</glyph>
<glyph name="pi" format="2">
  <advance width="1319"/>
  <unicode hex="03C0"/>
  <outline>
    <contour>
      <point x="1354" y="1092" type="line"/>
      <point x="1315" y="868" type="line"/>
      <point x="1139" y="868" type="line"/>
      <point x="985" y="0" type="line"/>
      <point x="698" y="0" type="line"/>
      <point x="850" y="868" type="line"/>
      <point x="612" y="868" type="line"/>
      <point x="461" y="0" type="line"/>
      <point x="174" y="0" type="line"/>
      <point x="326" y="868" type="line"/>
      <point x="301" y="868" type="line" smooth="yes"/>
      <point x="246" y="868"/>
      <point x="188" y="806"/>
      <point x="178" y="738" type="qcurve"/>
      <point x="-35" y="737" type="line"/>
      <point x="-5" y="937"/>
      <point x="181" y="1092"/>
      <point x="399" y="1092" type="qcurve" smooth="yes"/>
    </contour>
  </outline>
</glyph>
<glyph name="quotedblright" format="2">
  <advance width="1090"/>
  <unicode hex="201D"/>
  <outline>
    <contour>
      <point x="51" y="838" type="line"/>
      <point x="244" y="1464" type="line"/>
      <point x="551" y="1464" type="line"/>
      <point x="242" y="838" type="line"/>
    </contour>
    <contour>
      <point x="539" y="838" type="line"/>
      <point x="729" y="1464" type="line"/>
      <point x="1038" y="1464" type="line"/>
      <point x="729" y="838" type="line"/>
    </contour>
  </outline>
</glyph>
<glyph name="daggerdbl" format="2">
  <advance width="1176"/>
  <unicode hex="2021"/>
  <outline>
    <contour>
      <point x="444" y="-446" type="line"/>
      <point x="444" y="25" type="line"/>
      <point x="66" y="25" type="line"/>
      <point x="66" y="256" type="line"/>
      <point x="444" y="256" type="line"/>
      <point x="444" y="844" type="line"/>
      <point x="66" y="844" type="line"/>
      <point x="66" y="1077" type="line"/>
      <point x="444" y="1077" type="line"/>
      <point x="444" y="1464" type="line"/>
      <point x="729" y="1464" type="line"/>
      <point x="729" y="1077" type="line"/>
      <point x="1110" y="1077" type="line"/>
      <point x="1110" y="844" type="line"/>
      <point x="729" y="844" type="line"/>
      <point x="729" y="256" type="line"/>
      <point x="1110" y="256" type="line"/>
      <point x="1110" y="25" type="line"/>
      <point x="729" y="25" type="line"/>
      <point x="729" y="-446" type="line"/>
    </contour>
  </outline>
</glyph>
<glyph name="perthousand" format="2">
  <advance width="2558"/>
  <unicode hex="2030"/>
  <outline>
    <contour>
      <point x="741" y="1075" type="qcurve" smooth="yes"/>
      <point x="741" y="884"/>
      <point x="556" y="670"/>
      <point x="391" y="670" type="qcurve" smooth="yes"/>
      <point x="225" y="670"/>
      <point x="39" y="883"/>
      <point x="39" y="1075" type="qcurve" smooth="yes"/>
      <point x="39" y="1264"/>
      <point x="226" y="1479"/>
      <point x="391" y="1479" type="qcurve" smooth="yes"/>
      <point x="558" y="1479"/>
      <point x="741" y="1267"/>
    </contour>
    <contour>
      <point x="254" y="1075" type="qcurve" smooth="yes"/>
      <point x="254" y="950"/>
      <point x="326" y="813"/>
      <point x="391" y="813" type="qcurve" smooth="yes"/>
      <point x="459" y="813"/>
      <point x="528" y="946"/>
      <point x="528" y="1075" type="qcurve" smooth="yes"/>
      <point x="528" y="1202"/>
      <point x="458" y="1335"/>
      <point x="391" y="1335" type="qcurve" smooth="yes"/>
      <point x="325" y="1335"/>
      <point x="254" y="1201"/>
    </contour>
    <contour>
      <point x="510" y="-39" type="line"/>
      <point x="360" y="-39" type="line"/>
      <point x="1217" y="1479" type="line"/>
      <point x="1366" y="1479" type="line"/>
    </contour>
    <contour>
      <point x="1692" y="367" type="qcurve" smooth="yes"/>
      <point x="1692" y="176"/>
      <point x="1505" y="-39"/>
      <point x="1339" y="-39" type="qcurve" smooth="yes"/>
      <point x="1173" y="-39"/>
      <point x="987" y="175"/>
      <point x="987" y="367" type="qcurve" smooth="yes"/>
      <point x="987" y="556"/>
      <point x="1174" y="770"/>
      <point x="1339" y="770" type="qcurve" smooth="yes"/>
      <point x="1507" y="770"/>
      <point x="1692" y="559"/>
    </contour>
    <contour>
      <point x="1202" y="365" type="qcurve" smooth="yes"/>
      <point x="1202" y="240"/>
      <point x="1274" y="104"/>
      <point x="1339" y="104" type="qcurve" smooth="yes"/>
      <point x="1407" y="104"/>
      <point x="1479" y="239"/>
      <point x="1479" y="367" type="qcurve" smooth="yes"/>
      <point x="1479" y="493"/>
      <point x="1408" y="627"/>
      <point x="1341" y="627" type="qcurve" smooth="yes"/>
      <point x="1275" y="627"/>
      <point x="1202" y="490"/>
    </contour>
    <contour>
      <point x="2519" y="367" type="qcurve" smooth="yes"/>
      <point x="2519" y="175"/>
      <point x="2334" y="-39"/>
      <point x="2169" y="-39" type="qcurve" smooth="yes"/>
      <point x="2003" y="-39"/>
      <point x="1817" y="175"/>
      <point x="1817" y="367" type="qcurve" smooth="yes"/>
      <point x="1817" y="556"/>
      <point x="2003" y="770"/>
      <point x="2169" y="770" type="qcurve" smooth="yes"/>
      <point x="2336" y="770"/>
      <point x="2519" y="559"/>
    </contour>
    <contour>
      <point x="2030" y="365" type="qcurve" smooth="yes"/>
      <point x="2030" y="240"/>
      <point x="2101" y="104"/>
      <point x="2167" y="104" type="qcurve" smooth="yes"/>
      <point x="2235" y="104"/>
      <point x="2306" y="239"/>
      <point x="2306" y="367" type="qcurve" smooth="yes"/>
      <point x="2306" y="493"/>
      <point x="2235" y="627"/>
      <point x="2169" y="627" type="qcurve" smooth="yes"/>
      <point x="2102" y="627"/>
      <point x="2030" y="490"/>
    </contour>
  </outline>
</glyph>
<glyph name="guilsinglright" format="2">
  <advance width="639"/>
  <unicode hex="203A"/>
  <outline>
    <contour>
      <point x="66" y="836" type="line"/>
      <point x="219" y="942" type="line"/>
      <point x="575" y="487" type="line"/>
      <point x="221" y="33" type="line"/>
      <point x="72" y="139" type="line"/>
      <point x="342" y="485" type="line"/>
    </contour>
  </outline>
</glyph>
<glyph name="trademark" format="2">
  <advance width="1706"/>
  <unicode hex="2122"/>
  <outline>
    <contour>
      <point x="803" y="1462" type="line"/>
      <point x="999" y="1462" type="line"/>
      <point x="1126" y="1130" type="line"/>
      <point x="1249" y="1462" type="line"/>
      <point x="1446" y="1462" type="line"/>
      <point x="1446" y="915" type="line"/>
      <point x="1311" y="915" type="line"/>
      <point x="1311" y="1325" type="line"/>
      <point x="1157" y="915" type="line"/>
      <point x="1096" y="915" type="line"/>
      <point x="938" y="1325" type="line"/>
      <point x="938" y="915" type="line"/>
      <point x="803" y="915" type="line"/>
    </contour>
    <contour>
      <point x="207" y="1462" type="line"/>
      <point x="692" y="1462" type="line"/>
      <point x="692" y="1350" type="line"/>
      <point x="524" y="1350" type="line"/>
      <point x="524" y="915" type="line"/>
      <point x="375" y="915" type="line"/>
      <point x="375" y="1350" type="line"/>
      <point x="207" y="1350" type="line"/>
    </contour>
  </outline>
</glyph>
<glyph name="product" format="2">
  <advance width="1612"/>
  <unicode hex="220F"/>
  <outline>
    <contour>
      <point x="150" y="1473" type="line"/>
      <point x="1458" y="1473" type="line"/>
      <point x="1458" y="-393" type="line"/>
      <point x="1114" y="-393" type="line"/>
      <point x="1114" y="1184" type="line"/>
      <point x="494" y="1184" type="line"/>
      <point x="494" y="-393" type="line"/>
      <point x="150" y="-393" type="line"/>
    </contour>
  </outline>
</glyph>
<glyph name="fraction" format="2">
  <advance width="342"/>
  <unicode hex="2215"/>
  <outline>
    <contour>
      <point x="-342" y="-39" type="line"/>
      <point x="532" y="1479" type="line"/>
      <point x="682" y="1479" type="line"/>
      <point x="-193" y="-39" type="line"/>
    </contour>
  </outline>
</glyph>
<glyph name="periodcentered" format="2">
  <advance width="629"/>
  <unicode hex="2219"/>
  <outline>
    <contour>
      <point x="141" y="721" type="qcurve" smooth="yes"/>
      <point x="141" y="792"/>
      <point x="242" y="891"/>
      <point x="313" y="891" type="qcurve" smooth="yes"/>
      <point x="385" y="891"/>
      <point x="485" y="792"/>
      <point x="485" y="721" type="qcurve" smooth="yes"/>
      <point x="485" y="650"/>
      <point x="385" y="549"/>
      <point x="313" y="549" type="qcurve" smooth="yes"/>
      <point x="242" y="549"/>
      <point x="141" y="651"/>
    </contour>
  </outline>
</glyph>
<glyph name="notequal" format="2">
  <advance width="1706"/>
  <unicode hex="2260"/>
  <outline>
    <contour>
      <point x="1198" y="1233" type="line"/>
      <point x="1346" y="1114" type="line"/>
      <point x="1192" y="922" type="line"/>
      <point x="1452" y="922" type="line"/>
      <point x="1452" y="731" type="line"/>
      <point x="1063" y="731" type="line"/>
      <point x="872" y="492" type="line"/>
      <point x="1452" y="492" type="line"/>
      <point x="1452" y="299" type="line"/>
      <point x="745" y="299" type="line"/>
      <point x="500" y="-10" type="line"/>
      <point x="352" y="109" type="line"/>
      <point x="506" y="299" type="line"/>
      <point x="254" y="299" type="line"/>
      <point x="254" y="492" type="line"/>
      <point x="631" y="492" type="line"/>
      <point x="821" y="731" type="line"/>
      <point x="254" y="731" type="line"/>
      <point x="254" y="922" type="line"/>
      <point x="950" y="922" type="line"/>
    </contour>
  </outline>
</glyph>
<glyph name="lessequal" format="2">
  <advance width="1706"/>
  <unicode hex="2264"/>
  <outline>
    <contour>
      <point x="258" y="195" type="line"/>
      <point x="1450" y="195" type="line"/>
      <point x="1450" y="-2" type="line"/>
      <point x="258" y="-2" type="line"/>
    </contour>
    <contour>
      <point x="1448" y="1241" type="line"/>
      <point x="1448" y="1032" type="line"/>
      <point x="614" y="768" type="line"/>
      <point x="1448" y="506" type="line"/>
      <point x="1448" y="297" type="line"/>
      <point x="258" y="682" type="line"/>
      <point x="258" y="856" type="line"/>
    </contour>
  </outline>
</glyph>
<glyph name="greaterequal" format="2">
  <advance width="1706"/>
  <unicode hex="2265"/>
  <outline>
    <contour>
      <point x="258" y="195" type="line"/>
      <point x="1450" y="195" type="line"/>
      <point x="1450" y="-2" type="line"/>
      <point x="258" y="-2" type="line"/>
    </contour>
    <contour>
      <point x="260" y="1241" type="line"/>
      <point x="1448" y="856" type="line"/>
      <point x="1448" y="682" type="line"/>
      <point x="260" y="297" type="line"/>
      <point x="260" y="506" type="line"/>
      <point x="1092" y="768" type="line"/>
      <point x="260" y="1032" type="line"/>
    </contour>
  </outline>
</glyph>
<glyph name="apple" format="2">
  <advance width="1618"/>
  <unicode hex="F000"/>
  <outline>
    <contour>
      <point x="836" y="1216" type="qcurve" smooth="yes"/>
      <point x="835" y="1222"/>
      <point x="834" y="1238"/>
      <point x="834" y="1253" type="qcurve" smooth="yes"/>
      <point x="834" y="1377"/>
      <point x="1024" y="1588"/>
      <point x="1165" y="1614" type="qcurve"/>
      <point x="1166" y="1604"/>
      <point x="1167" y="1578"/>
      <point x="1167" y="1552" type="qcurve" smooth="yes"/>
      <point x="1167" y="1421"/>
      <point x="960" y="1214"/>
      <point x="860" y="1214" type="qcurve" smooth="yes"/>
      <point x="852" y="1214" type="line" smooth="yes"/>
      <point x="849" y="1214"/>
      <point x="840" y="1216"/>
    </contour>
    <contour>
      <point x="1505" y="403" type="qcurve"/>
      <point x="1391" y="156"/>
      <point x="1209" y="-35"/>
      <point x="1096" y="-35" type="qcurve" smooth="yes"/>
      <point x="1046" y="-35"/>
      <point x="883" y="31"/>
      <point x="842" y="31" type="qcurve" smooth="yes"/>
      <point x="797" y="31"/>
      <point x="625" y="-35"/>
      <point x="584" y="-35" type="qcurve" smooth="yes"/>
      <point x="520" y="-35"/>
      <point x="391" y="53"/>
      <point x="326" y="141" type="qcurve" smooth="yes"/>
      <point x="224" y="281"/>
      <point x="113" y="592"/>
      <point x="113" y="737" type="qcurve" smooth="yes"/>
      <point x="113" y="956"/>
      <point x="363" y="1231"/>
      <point x="561" y="1231" type="qcurve" smooth="yes"/>
      <point x="629" y="1231"/>
      <point x="803" y="1163"/>
      <point x="840" y="1163" type="qcurve" smooth="yes"/>
      <point x="874" y="1163"/>
      <point x="1049" y="1233"/>
      <point x="1114" y="1233" type="qcurve" smooth="yes"/>
      <point x="1224" y="1233"/>
      <point x="1400" y="1153"/>
      <point x="1473" y="1069" type="qcurve"/>
      <point x="1371" y="1004"/>
      <point x="1272" y="843"/>
      <point x="1272" y="741" type="qcurve" smooth="yes"/>
      <point x="1272" y="628"/>
      <point x="1392" y="454"/>
    </contour>
  </outline>
</glyph>
